<?xml version="1.0" encoding="utf-8"?>
<!-- Generator: Adobe Illustrator 25.0.0, SVG Export Plug-In . SVG Version: 6.00 Build 0)  -->
<svg version="1.1" id="Layer_1" xmlns="http://www.w3.org/2000/svg" xmlns:xlink="http://www.w3.org/1999/xlink" x="0px" y="0px"
	 viewBox="0 0 2009.8 342" style="enable-background:new 0 0 2009.8 342;" xml:space="preserve">
<style type="text/css">
	.st0{fill:url(#SVGID_1_);}
	.st1{fill:url(#SVGID_2_);}
	.st2{fill:url(#SVGID_3_);}
	.st3{fill:#FFFFFF;}
	.st4{fill:url(#SVGID_4_);}
</style>
<g>
	<g>
		
			<linearGradient id="SVGID_1_" gradientUnits="userSpaceOnUse" x1="360.1469" y1="172.1996" x2="94.3631" y2="173.184" gradientTransform="matrix(1 0 0 -1 0 343.8)">
			<stop  offset="0" style="stop-color:#2994FF"/>
			<stop  offset="1" style="stop-color:#0033BF"/>
		</linearGradient>
		<path class="st0" d="M342,170.9L342,170.9c0,26.5-21.5,48-48,48H48.1c-26.5,0-48-21.5-48-48l0,0c0-26.5,21.5-48,48-48H294
			C320.5,122.9,342,144.4,342,170.9z"/>
		
			<linearGradient id="SVGID_2_" gradientUnits="userSpaceOnUse" x1="338.2649" y1="173.195" x2="-36.5986" y2="170.6735" gradientTransform="matrix(1 0 0 -1 0 343.8)">
			<stop  offset="0" style="stop-color:#45A2FF"/>
			<stop  offset="1" style="stop-color:#2660FF"/>
		</linearGradient>
		<circle class="st1" cx="294.4" cy="170.9" r="47.7"/>
		
			<linearGradient id="SVGID_3_" gradientUnits="userSpaceOnUse" x1="315.7904" y1="172.0261" x2="23.3076" y2="174.7343" gradientTransform="matrix(1 0 0 -1 0 343.8)">
			<stop  offset="0" style="stop-color:#45A2FF"/>
			<stop  offset="1" style="stop-color:#2660FF"/>
		</linearGradient>
		<path class="st2" d="M292.4,245.8H171c-41.4,0-74.9-33.5-74.9-74.9l0,0c0-41.4,33.5-74.9,74.9-74.9h121.3
			c25.6,0,47.9-19.3,49.6-44.8C343.7,23.2,321.6,0,294,0H171C76.6,0,0,76.6,0,171l0,0c0,94.4,76.6,171,171,171h123
			c27.6,0,49.7-23.3,47.9-51.2C340.3,265.1,318,245.8,292.4,245.8z"/>
	</g>
	<g>
		<g>
			<path class="st3" d="M579.6,156.4c-2.1-3-5-5.6-8.8-7.6s-7.9-3-12.3-3c-10.8,0-19.2,3.2-25.2,9.7s-9,14.9-9,25.4s3,18.9,9,25.4
				c6,6.5,14.4,9.7,25.2,9.7c4.7,0,8.8-1,12.3-3.1c3.4-2.1,6.4-4.6,8.8-7.4l28.2,29.6c-6.7,6.8-14.5,11.6-23.5,14.4
				s-17.6,4.1-25.8,4.1c-10.6,0-20.7-1.7-30.1-5.1s-17.6-8.3-24.5-14.7c-6.9-6.4-12.4-14-16.4-22.9s-6-18.9-6-29.9s2-21,6-29.9
				s9.5-16.6,16.4-22.9c6.9-6.4,15.1-11.3,24.5-14.7s19.4-5.1,30.1-5.1c8.2,0,16.8,1.4,25.8,4.1c9,2.8,16.9,7.6,23.5,14.4
				L579.6,156.4z"/>
			<path class="st3" d="M756,250.2h-41v-18.8h-0.6c-1.5,2.7-3.5,5.3-5.8,8c-2.4,2.7-5.3,5-8.7,7.1s-7.3,3.8-11.7,5.1
				c-4.4,1.3-9.1,2-14.3,2c-10.8,0-19.6-1.7-26.4-5c-6.8-3.3-12-7.9-15.7-13.8s-6.2-12.8-7.4-20.8s-1.9-16.6-1.9-25.9v-76.4h42.8
				v67.8c0,4,0.1,8.1,0.4,12.4c0.3,4.3,1.1,8.2,2.6,11.8c1.4,3.6,3.6,6.6,6.6,8.8c2.9,2.3,7.2,3.4,12.7,3.4s10-1,13.4-3s6-4.7,7.8-8
				c1.8-3.3,3-7.1,3.6-11.3s0.9-8.6,0.9-13.1v-69h42.8L756,250.2L756,250.2z"/>
			<path class="st3" d="M786.3,111.6h42.8v22.3h0.6c4.6-8.6,10-15,16.2-19.2c6.3-4.3,14.2-6.4,23.7-6.4c2.5,0,4.9,0.1,7.4,0.3
				s4.7,0.6,6.8,1.1v39.1c-3-1-6-1.7-9-2.1c-3-0.5-6-0.7-9.3-0.7c-8.2,0-14.6,1.1-19.4,3.4c-4.7,2.3-8.4,5.5-11,9.6s-4.2,9-5,14.7
				s-1.1,12-1.1,18.8v57.9h-42.8L786.3,111.6L786.3,111.6z"/>
			<path class="st3" d="M899.9,111.6h42.8v22.3h0.6c4.6-8.6,10-15,16.2-19.2c6.3-4.3,14.2-6.4,23.7-6.4c2.5,0,4.9,0.1,7.4,0.3
				s4.7,0.6,6.8,1.1v39.1c-3-1-6-1.7-9-2.1c-3-0.5-6-0.7-9.3-0.7c-8.2,0-14.6,1.1-19.4,3.4c-4.7,2.3-8.4,5.5-11,9.6s-4.2,9-5,14.7
				s-1.1,12-1.1,18.8v57.9h-42.7V111.6z"/>
			<path class="st3" d="M1144.3,226.2c-6.8,8.7-15.5,15.5-25.9,20.2c-10.4,4.7-21.3,7.1-32.5,7.1c-10.6,0-20.7-1.7-30.1-5.1
				c-9.4-3.4-17.6-8.3-24.5-14.7c-6.9-6.4-12.4-14-16.4-22.9s-6-18.9-6-29.9s2-21,6-29.9s9.5-16.6,16.4-22.9
				c6.9-6.4,15.1-11.3,24.5-14.7c9.4-3.4,19.4-5.1,30.1-5.1c9.9,0,18.9,1.7,26.9,5.1c8.1,3.4,14.9,8.3,20.5,14.7
				c5.6,6.4,9.9,14,13,22.9c3,8.9,4.6,18.9,4.6,29.9v13.4h-99.2c1.7,8.2,5.4,14.7,11.1,19.5s12.7,7.3,21.1,7.3c7,0,13-1.6,17.8-4.7
				s9.1-7.2,12.7-12.1L1144.3,226.2z M1108.1,165.2c0.2-7.2-2.2-13.4-7.1-18.5c-4.9-5.1-11.3-7.7-19.1-7.7c-4.8,0-8.9,0.8-12.5,2.3
				c-3.6,1.5-6.7,3.5-9.3,5.8c-2.6,2.4-4.6,5.1-6,8.3c-1.4,3.1-2.2,6.4-2.4,9.8L1108.1,165.2L1108.1,165.2z"/>
			<path class="st3" d="M1175.7,111.6h41v18.8h0.6c1.3-2.7,3.2-5.3,5.7-8s5.4-5,8.8-7.1c3.4-2.1,7.3-3.8,11.7-5.1s9.1-2,14.3-2
				c10.8,0,19.6,1.7,26.2,5c6.6,3.3,11.8,7.9,15.5,13.8c3.7,5.9,6.2,12.8,7.6,20.8c1.3,8,2,16.6,2,25.9v76.4h-42.8v-67.8
				c0-4-0.1-8.1-0.4-12.4c-0.3-4.3-1.1-8.2-2.6-11.8c-1.4-3.6-3.6-6.6-6.6-8.8c-3-2.3-7.2-3.4-12.7-3.4s-10,1-13.4,3
				c-3.4,2-6,4.7-7.8,8s-3,7.1-3.6,11.3c-0.6,4.2-0.9,8.6-0.9,13.1v69h-42.8V111.6H1175.7z"/>
			<path class="st3" d="M1430.6,156.4c-2.1-3-5-5.6-8.8-7.6s-7.9-3-12.3-3c-10.8,0-19.2,3.2-25.2,9.7s-9,14.9-9,25.4s3,18.9,9,25.4
				c6,6.5,14.4,9.7,25.2,9.7c4.7,0,8.8-1,12.3-3.1c3.4-2.1,6.4-4.6,8.8-7.4l28.2,29.6c-6.7,6.8-14.5,11.6-23.5,14.4
				s-17.6,4.1-25.8,4.1c-10.6,0-20.7-1.7-30.1-5.1c-9.4-3.4-17.6-8.3-24.5-14.7c-6.9-6.4-12.4-14-16.4-22.9s-6-18.9-6-29.9
				s2-21,6-29.9s9.5-16.6,16.4-22.9c6.9-6.4,15.1-11.3,24.5-14.7c9.4-3.4,19.4-5.1,30.1-5.1c8.2,0,16.8,1.4,25.8,4.1
				c9,2.8,16.9,7.6,23.5,14.4L1430.6,156.4z"/>
			<path class="st3" d="M1558.7,272.7c-2.9,7.4-5.6,14-8.3,19.7c-2.7,5.7-6,10.5-10.1,14.4c-4.1,3.9-9.3,6.8-15.5,8.8
				c-6.3,2-14.5,3-24.8,3c-11,0-21.7-1.7-31.9-5.1l5.7-35.1c6.5,2.9,13.1,4.3,20,4.3c4.7,0,8.6-0.5,11.7-1.6c3-1,5.6-2.6,7.6-4.6
				s3.7-4.4,5-7.3c1.3-2.8,2.8-6.2,4.3-10l3.1-8l-60.7-139.7h46.2l35.6,91.5h0.6l30.5-91.5h43.9L1558.7,272.7z"/>
			<path class="st3" d="M1719.7,232.8h-0.6c-4.7,7.4-11.1,12.7-19,16c-7.9,3.2-16.2,4.8-24.9,4.8c-6.5,0-12.7-0.9-18.7-2.7
				c-6-1.8-11.3-4.5-15.8-8.1c-4.6-3.6-8.2-8.1-10.8-13.4c-2.7-5.3-4-11.5-4-18.5c0-8,1.5-14.7,4.4-20.2c2.9-5.5,6.9-10.1,12-13.7
				c5-3.6,10.8-6.4,17.2-8.4c6.5-2,13.2-3.5,20.1-4.4c6.9-0.9,13.9-1.5,20.8-1.7c6.9-0.2,13.3-0.3,19.2-0.3c0-7.6-2.7-13.6-8.1-18.1
				c-5.4-4.5-11.8-6.7-19.2-6.7c-7,0-13.4,1.5-19.2,4.4c-5.8,2.9-11,7-15.5,12.1l-22.8-23.4c8-7.4,17.3-13,27.9-16.7
				c10.6-3.7,21.7-5.6,33.1-5.6c12.5,0,22.8,1.6,30.9,4.7c8.1,3.1,14.5,7.7,19.4,13.8c4.8,6.1,8.2,13.5,10.1,22.4
				c1.9,8.8,2.8,19,2.8,30.6v70.4h-39.3V232.8z M1709.1,189.5c-3.2,0-7.3,0.1-12.1,0.4c-4.8,0.3-9.5,1.1-14,2.4
				c-4.5,1.3-8.3,3.3-11.4,6c-3.1,2.7-4.7,6.4-4.7,11.1c0,5.1,2.2,8.9,6.6,11.4c4.4,2.5,8.9,3.7,13.7,3.7c4.2,0,8.2-0.6,12.1-1.7
				c3.9-1.1,7.4-2.7,10.4-4.8c3-2.1,5.5-4.7,7.3-8c1.8-3.2,2.7-7,2.7-11.4v-9.1H1709.1z"/>
			<path class="st3" d="M1789.2,111.6h39.3v18.3h0.6c1.7-2.5,3.9-5,6.7-7.6c2.7-2.6,6-4.9,9.7-7s7.7-3.8,12.1-5.1c4.4-1.3,9-2,14-2
				c10.3,0,19.6,1.8,27.9,5.3c8.4,3.5,15.5,8.5,21.5,14.8c6,6.4,10.6,13.9,13.8,22.7c3.2,8.7,4.8,18.3,4.8,28.8
				c0,9.7-1.5,19-4.4,27.8c-3,8.8-7.1,16.7-12.5,23.5c-5.4,6.8-12,12.3-19.8,16.4s-16.6,6.1-26.5,6.1c-8.9,0-17.2-1.4-24.9-4.1
				c-7.7-2.8-14-7.5-19-14.1h-0.6v79.8h-42.8V111.6H1789.2z M1828.5,180.9c0,10.5,3,18.9,9,25.4s14.4,9.7,25.2,9.7
				s19.2-3.2,25.2-9.7s9-14.9,9-25.4c0-10.4-3-18.9-9-25.4s-14.4-9.7-25.2-9.7c-10.8,0-19.2,3.2-25.2,9.7S1828.5,170.5,1828.5,180.9
				z"/>
			<path class="st3" d="M1963.6,111.6h42.8v138.5h-42.8V111.6z"/>
		</g>
		
			<linearGradient id="SVGID_4_" gradientUnits="userSpaceOnUse" x1="1960.2" y1="275.7" x2="2009.7998" y2="275.7" gradientTransform="matrix(1 0 0 -1 0 343.8)">
			<stop  offset="0" style="stop-color:#45A2FF"/>
			<stop  offset="1" style="stop-color:#2660FF"/>
		</linearGradient>
		<circle class="st4" cx="1985" cy="68.1" r="24.8"/>
	</g>
</g>
</svg>
