<?xml version="1.0" encoding="UTF-8"?>
<!DOCTYPE svg PUBLIC "-//W3C//DTD SVG 1.1//EN" "http://www.w3.org/Graphics/SVG/1.1/DTD/svg11.dtd">
<!-- Creator: CorelDRAW 2019 (64-Bit) -->
<svg xmlns="http://www.w3.org/2000/svg" xml:space="preserve" width="1931px" height="2160px" version="1.1" style="shape-rendering:geometricPrecision; text-rendering:geometricPrecision; image-rendering:optimizeQuality; fill-rule:evenodd; clip-rule:evenodd"
viewBox="0 0 1931 2159.5"
 xmlns:xlink="http://www.w3.org/1999/xlink"
 xmlns:xodm="http://www.corel.com/coreldraw/odm/2003">
 <defs>
  <style type="text/css">
   <![CDATA[
    .fil4 {fill:#FEFEFE}
    .fil1 {fill:#FFF000}
    .fil7 {fill:#E62129}
    .fil3 {fill:#00A2E9}
    .fil2 {fill:#009B4C}
    .fil0 {fill:#1D1819}
    .fil6 {fill:#FEFEFE;fill-rule:nonzero}
    .fil5 {fill:#1D1819;fill-rule:nonzero}
   ]]>a
  </style>
 </defs>
 <g id="Layer_x0020_1">
  <metadata id="CorelCorpID_0Corel-Layer"/>
  <path class="fil0" d="M1837.77 1442.88l1.15 4.07c5.35,18.87 2.19,40.87 -6.21,58.38 -11.73,24.43 -32.93,40.55 -58.61,48.34 -12.95,3.92 -26.02,5.45 -38.91,4.37 6.04,4.99 11.5,10.65 14.41,18.11 6.62,16.95 -3.33,37.29 -10.64,52.45 -99.3,205.89 -259.38,376.01 -471.54,466.17 -204.41,86.86 -403.49,86.26 -607.47,-1.56 -210.44,-90.6 -369.2,-259.95 -467.91,-464.61 -7.31,-15.16 -17.26,-35.5 -10.64,-52.45 2.91,-7.46 8.37,-13.12 14.41,-18.11 -12.89,1.08 -25.96,-0.45 -38.91,-4.37 -25.68,-7.79 -46.89,-23.91 -58.61,-48.34 -8.41,-17.51 -11.56,-39.51 -6.21,-58.38l1.15 -4.07 -1.3 -1.28c-42.34,-41.58 -78.29,-94.54 -88.9,-153.88 -8.17,-45.69 -0.29,-93.12 29.29,-129.89 23.29,-28.94 56.18,-46.31 92.51,-52.62l63.85 -11.09 -53.38 36.75c-13.07,8.99 -24.45,21.07 -30.02,36.14 -4.29,11.63 -4.71,24.12 -0.62,35.87 4.44,12.79 13.63,23.02 25.39,29.58 15.24,8.5 33.29,10.15 50.34,7.77 3.2,-0.44 6.3,-1.34 9.3,-2.53 6.01,-2.38 11.67,-5.92 17.03,-9.5 12.83,-8.56 24.97,-18.05 40.18,-22.1 39.18,-10.44 71.24,24.88 92.56,52.62l1.86 2.41 0.7 2.96c50.65,213.55 157.19,421.22 363.46,519.8 81.53,38.97 169.96,56.43 260.02,57.4 90.07,-0.97 178.49,-18.43 260.02,-57.4 206.27,-98.58 312.81,-306.25 363.46,-519.8l0.7 -2.96 1.86 -2.41c21.32,-27.74 53.38,-63.06 92.56,-52.62 15.21,4.05 27.35,13.54 40.18,22.1 7.87,5.26 16.77,10.71 26.33,12.03 17.05,2.38 35.1,0.73 50.34,-7.77 11.76,-6.56 20.95,-16.79 25.39,-29.58 4.09,-11.75 3.67,-24.24 -0.62,-35.87 -5.57,-15.07 -16.95,-27.15 -30.02,-36.14l-53.38 -36.75 63.85 11.09c36.33,6.31 69.22,23.68 92.51,52.62 29.58,36.77 37.46,84.2 29.29,129.89 -10.61,59.34 -46.56,112.3 -88.9,153.88l-1.3 1.28zm-1172.22 637.3c-185.58,-79.9 -352.2,-232.7 -460.73,-457.74 -17.68,-36.66 -14.34,-42.87 5.89,-58.02 43.08,-24.98 105.89,-67.5 94.27,-174.31l-13.48 -0.06c14.2,69.24 -43.31,176.48 -130.48,150.04 -52.16,-15.81 -62.6,-63.5 -55.29,-89.28 98.49,-14.14 148.54,-41.24 122.77,-146.44l-11.48 1.09c29.42,118.57 -79.05,126.74 -115.15,126.03 -139.4,-136.93 -98.89,-290.73 25.39,-312.31 -75.37,51.89 -35.57,147.72 55.09,135.1 48.61,-6.76 70.53,-84.91 145.87,13.08 94.09,396.75 331.53,584.87 637.28,588.12 305.75,-3.25 543.19,-191.37 637.28,-588.12 75.34,-97.99 97.26,-19.84 145.87,-13.08 90.66,12.62 130.46,-83.21 55.09,-135.1 124.28,21.58 164.79,175.38 25.39,312.31 -36.1,0.71 -144.57,-7.46 -115.15,-126.03l-11.48 -1.09c-25.77,105.2 24.28,132.3 122.77,146.44 7.31,25.78 -3.13,73.47 -55.29,89.28 -87.17,26.44 -144.68,-80.8 -130.48,-150.04l-13.48 0.06c-11.62,106.81 51.19,149.33 94.27,174.31 20.23,15.15 23.57,21.36 5.89,58.02 -109.23,226.48 -277.29,379.8 -464.31,459.27 -200.8,85.33 -395.76,84.82 -596.32,-1.53z"/>
  <path class="fil1" d="M665.55 2080.18c-185.58,-79.9 -352.2,-232.7 -460.73,-457.74 -17.68,-36.66 -14.34,-42.87 5.89,-58.02 43.08,-24.98 105.89,-67.5 94.27,-174.31l-13.48 -0.06c14.2,69.24 -43.31,176.48 -130.48,150.04 -52.16,-15.82 -62.6,-63.5 -55.29,-89.28 98.49,-14.14 148.54,-41.24 122.77,-146.44l-11.48 1.09c29.42,118.57 -79.05,126.74 -115.15,126.03 -139.4,-136.93 -98.89,-290.73 25.39,-312.31 -75.37,51.88 -35.57,147.72 55.09,135.1 48.61,-6.76 70.53,-84.91 145.87,13.08 94.09,396.75 331.53,584.87 637.28,588.12 305.75,-3.25 543.19,-191.37 637.28,-588.12 75.34,-97.99 97.26,-19.84 145.87,-13.08 90.66,12.62 130.46,-83.22 55.09,-135.1 124.28,21.58 164.79,175.38 25.39,312.31 -36.1,0.71 -144.57,-7.46 -115.15,-126.03l-11.48 -1.09c-25.77,105.2 24.28,132.3 122.77,146.44 7.31,25.78 -3.13,73.46 -55.29,89.28 -87.17,26.44 -144.68,-80.8 -130.48,-150.04l-13.48 0.06c-11.62,106.81 51.19,149.33 94.27,174.31 20.23,15.15 23.57,21.36 5.89,58.02 -109.23,226.48 -277.29,379.8 -464.31,459.27 -200.8,85.33 -395.76,84.82 -596.32,-1.53z"/>
  <path class="fil0" d="M966.2 0c39.78,0 79.35,4.69 118.05,13.91 179.08,42.67 320.08,175.78 413.77,329.37 113.39,185.88 165.54,410.02 165.54,626.54 0,216.52 -52.15,440.66 -165.54,626.55 -93.68,153.58 -234.69,286.69 -413.77,329.36 -38.69,9.22 -78.27,13.91 -118.05,13.91 -39.79,0 -79.37,-4.69 -118.06,-13.91 -179.08,-42.68 -320.08,-175.78 -413.77,-329.36 -113.39,-185.89 -165.53,-410.03 -165.53,-626.55 0,-216.52 52.15,-440.65 165.54,-626.54 93.68,-153.58 234.68,-286.69 413.76,-329.37 38.7,-9.22 78.28,-13.91 118.06,-13.91zm0 14.18c376.28,0 683.17,429.3 683.17,955.64 0,526.35 -306.89,955.64 -683.17,955.64 -376.29,0 -683.18,-429.29 -683.18,-955.64 0,-526.34 306.89,-955.64 683.18,-955.64z"/>
  <path class="fil1" d="M966.2 14.18c376.28,0 683.17,429.3 683.17,955.64 0,526.35 -306.89,955.64 -683.17,955.64 -376.29,0 -683.18,-429.29 -683.18,-955.64 0,-526.34 306.89,-955.64 683.18,-955.64zm0 53.86c37.02,0 73.86,4.37 109.88,12.96 166.6,39.69 297.77,163.48 384.93,306.36 105.42,172.82 153.9,381.17 153.9,582.46 0,201.29 -48.48,409.65 -153.9,582.46 -87.15,142.88 -218.33,266.67 -384.93,306.37 -36.01,8.58 -72.85,12.95 -109.88,12.95 -37.03,0 -73.87,-4.37 -109.89,-12.95 -166.6,-39.7 -297.78,-163.49 -384.93,-306.37 -105.41,-172.81 -153.9,-381.17 -153.9,-582.46 0,-201.29 48.49,-409.64 153.9,-582.46 87.16,-142.88 218.34,-266.67 384.94,-306.36 36.01,-8.59 72.85,-12.96 109.88,-12.96z"/>
  <path class="fil0" d="M966.2 68.04c37.02,0 73.86,4.37 109.88,12.96 166.6,39.69 297.77,163.48 384.93,306.36 105.42,172.82 153.9,381.17 153.9,582.46 0,201.29 -48.48,409.65 -153.9,582.46 -87.15,142.88 -218.33,266.67 -384.93,306.37 -36.01,8.58 -72.85,12.95 -109.88,12.95 -37.03,0 -73.87,-4.37 -109.89,-12.95 -166.6,-39.7 -297.78,-163.49 -384.93,-306.37 -105.41,-172.81 -153.9,-381.17 -153.9,-582.46 0,-201.29 48.49,-409.64 153.9,-582.46 87.16,-142.88 218.34,-266.67 384.94,-306.36 36.01,-8.59 72.85,-12.96 109.88,-12.96zm0 14.19c349.49,0 634.53,398.73 634.53,887.59 0,488.88 -285.04,887.59 -634.53,887.59 -349.5,0 -634.54,-398.71 -634.54,-887.59 0,-488.86 285.04,-887.59 634.54,-887.59z"/>
  <path class="fil2" d="M966.2 82.23c349.49,0 634.53,398.73 634.53,887.59 0,488.88 -285.04,887.59 -634.53,887.59 -349.5,0 -634.54,-398.71 -634.54,-887.59 0,-488.86 285.04,-887.59 634.54,-887.59z"/>
  <path class="fil3" d="M1541.93 1342.3c-100.98,303.68 -321.25,515.11 -575.73,515.11 -254.49,0 -474.76,-211.43 -575.73,-515.11l1151.46 0z"/>
  <polygon class="fil4" points="1069.01,1342.3 1069.01,1447.11 971.08,1447.11 971.08,1342.3 "/>
  <path class="fil5" d="M1072.77 1342.3l0 104.81 0 3.75 -3.76 0 -97.93 0 -3.76 0 0 -3.75 0 -104.81 105.45 0zm-7.51 3.19l-90.43 0 0 97.87 90.43 0 0 -97.87z"/>
  <polygon class="fil4" points="1276.05,1342.3 1276.05,1447.11 1174.39,1447.11 1174.39,1342.3 "/>
  <path class="fil5" d="M1279.8 1342.3l0 104.81 0 3.75 -3.75 0 -101.66 0 -3.75 0 0 -3.75 0 -104.81 109.16 0zm-7.5 3.19l-94.15 0 0 97.87 94.15 0 0 -97.87z"/>
  <polygon class="fil4" points="1479.37,1342.3 1479.37,1447.11 1377.71,1447.11 1377.71,1342.3 "/>
  <path class="fil5" d="M1483.12 1342.3l0 104.81 0 3.75 -3.75 0 -101.66 0 -3.75 0 0 -3.75 0 -104.81 109.16 0zm-7.51 3.19l-94.15 0 0 97.87 94.15 0 0 -97.87z"/>
  <polygon class="fil4" points="1175.12,1552.49 1069.01,1552.49 1069.01,1447.11 1175.12,1447.11 "/>
  <path class="fil5" d="M1175.12 1556.24l-106.11 0 -3.75 0 0 -3.75 0 -105.38 0 -3.75 3.75 0 106.11 0 3.76 0 0 3.75 0 105.38 0 3.75 -3.76 0zm-102.35 -7.5l98.6 0 0 -97.88 -98.6 0 0 97.88z"/>
  <polygon class="fil4" points="1377.71,1552.49 1276.05,1552.49 1276.05,1447.11 1377.71,1447.11 "/>
  <path class="fil5" d="M1377.71 1556.24l-101.66 0 -3.75 0 0 -3.75 0 -105.38 0 -3.75 3.75 0 101.66 0 3.75 0 0 3.75 0 105.38 0 3.75 -3.75 0zm-97.91 -7.5l94.16 0 0 -97.88 -94.16 0 0 97.88z"/>
  <path class="fil4" d="M1479.37 1490.78l0 -43.67 21.32 0c-6.81,14.86 -13.91,29.43 -21.32,43.67z"/>
  <path class="fil5" d="M1475.61 1497.87l0 -50.76 0 -3.75 3.76 0 23.03 0c-1.14,2.5 -2.27,5.02 -3.42,7.5l-15.86 0 0 32.58c-2.47,4.85 -4.97,9.66 -7.51,14.43z"/>
  <polygon class="fil4" points="971.08,1657.87 1069.01,1657.87 1069.01,1552.49 971.08,1552.49 "/>
  <path class="fil5" d="M974.83 1654.11l90.43 0 0 -97.87 -90.43 0 0 97.87zm94.18 7.51l-97.93 0 -3.76 0 0 -3.75 0 -105.38 0 -3.75 3.76 0 97.93 0 3.76 0 0 3.75 0 105.38 0 3.75 -3.76 0z"/>
  <polygon class="fil4" points="1174.39,1657.87 1276.05,1657.87 1276.05,1552.49 1174.39,1552.49 "/>
  <path class="fil5" d="M1178.15 1654.11l94.15 0 0 -97.87 -94.15 0 0 97.87zm97.9 7.51l-101.66 0 -3.75 0 0 -3.75 0 -105.38 0 -3.75 3.75 0 101.66 0 3.75 0 0 3.75 0 105.38 0 3.75 -3.75 0z"/>
  <path class="fil4" d="M1444.15 1552.49l-66.44 0 0 91.98c23.71,-28.36 45.93,-59.1 66.44,-91.98z"/>
  <path class="fil5" d="M1441.78 1556.24l-60.32 0 0 83.73c-2.49,3.02 -4.98,6.03 -7.5,8.99l0 -96.47 0 -3.75 3.75 0 68.77 0c-1.55,2.51 -3.12,5.01 -4.7,7.5z"/>
  <polygon class="fil4" points="1175.12,1657.87 1069.01,1657.87 1069.01,1763.24 1175.12,1763.24 "/>
  <path class="fil5" d="M1171.37 1661.62l-98.6 0 0 97.87 98.6 0 0 -97.87zm-102.36 -7.51l106.11 0 3.76 0 0 3.76 0 105.37 0 3.75 -3.76 0 -106.11 0 -3.75 0 0 -3.75 0 -105.37 0 -3.76 3.75 0z"/>
  <path class="fil4" d="M1366.26 1657.87l-90.21 0 0 86.04c31.86,-25.09 62.04,-53.91 90.21,-86.04z"/>
  <path class="fil5" d="M1362.93 1661.62l-83.13 0 0 79.3c-2.49,2 -4.99,3.98 -7.5,5.93l0 -88.98 0 -3.76 3.75 0 93.46 0c-2.19,2.52 -4.38,5.03 -6.58,7.51z"/>
  <path class="fil4" d="M971.08 1763.24l97.93 0 0 82.47c-31.92,7.32 -64.63,11.28 -97.93,11.64l0 -94.11z"/>
  <path class="fil5" d="M971.08 1759.49l97.93 0 3.76 0 0 3.75 0 81.59c-2.5,0.6 -5,1.16 -7.51,1.71l0 -79.55 -90.43 0 0 90.31c-2.5,0.05 -5,0.09 -7.51,0.1l0 -94.16 0 -3.75 3.76 0z"/>
  <path class="fil4" d="M1174.39 1763.24l75.71 0c-24.39,17.17 -49.67,32.21 -75.71,44.93l0 -44.93z"/>
  <path class="fil5" d="M1174.39 1759.49l81 0c-3.53,2.55 -7.08,5.05 -10.65,7.5l-66.59 0 0 39.33c-2.5,1.24 -5,2.49 -7.51,3.69l0 -46.77 0 -3.75 3.75 0z"/>
  <path class="fil6" d="M433.08 1450.13c31.25,-9.45 57.75,-13.22 82.63,-13.11 24.45,0.11 47.6,10.68 71.98,18.05 33.25,10.04 70.76,9.18 104.06,-0.26 27.11,-7.69 54.39,-18.66 80.08,-16.86 51.97,-1.34 90.71,27.4 138.43,25.18 24.84,-1.15 43.86,-1.8 63.91,-6.38l0 0 -26.02 28.28 5.59 55.92 5.38 9.75c-87.08,23.47 -108.35,-15.87 -173.27,-19 -53.77,-2.59 -90.48,38.36 -140.07,36.56 -29.69,-1.08 -49.41,-16.35 -84.03,-24.95 -21.07,-5.24 -48.87,-2.91 -77.23,3.15 -18.63,-30.41 -35.84,-62.59 -51.44,-96.33z"/>
  <path class="fil5" d="M431.51 1446.68c10.09,-3.06 19.7,-5.54 28.93,-7.5 19.85,-4.21 37.94,-5.97 55.28,-5.9 19,0.09 36.9,6.16 55.14,12.35 5.85,1.98 11.74,3.98 17.92,5.85 15.95,4.82 32.91,7.07 49.87,7.03 17.68,-0.04 35.41,-2.58 52.08,-7.31 5.76,-1.63 11.32,-3.34 16.87,-5.06 21.77,-6.71 43.42,-13.38 64.4,-11.93 26.62,-0.64 49.64,6.36 72.13,13.21 21.69,6.6 42.88,13.05 65.97,11.97l4.32 -0.2c22.89,-1.05 40.86,-1.87 59.83,-6.31l-0.08 3.87 -4.4 4.78c-17.24,3.41 -34.14,4.18 -55.03,5.14l-4.32 0.2c-24.33,1.13 -46.14,-5.51 -68.46,-12.3 -21.99,-6.69 -44.49,-13.54 -70.04,-12.88l-0.24 0.01 -0.1 -0.01c-19.66,-1.38 -40.66,5.1 -61.78,11.61 -5.74,1.77 -11.5,3.55 -17.04,5.12 -17.28,4.89 -35.7,7.53 -54.11,7.57 -17.72,0.04 -35.42,-2.31 -52.04,-7.33 -5.97,-1.8 -12.08,-3.88 -18.15,-5.94 -17.68,-5.99 -35.04,-11.88 -52.77,-11.96 -16.78,-0.07 -34.34,1.65 -53.69,5.75 -8.71,1.85 -17.79,4.18 -27.33,7.05 -1.06,-2.28 -2.11,-4.58 -3.16,-6.88zm529.47 107.39c-56.09,15.34 -85.51,5.23 -115.98,-5.25 -17.6,-6.05 -35.56,-12.23 -59.32,-13.38 -26.72,-1.29 -49.43,8.68 -71.69,18.45 -21.88,9.6 -43.35,19.02 -68.34,18.11 -18.18,-0.66 -32.53,-6.36 -48.55,-12.73 -10.75,-4.27 -22.29,-8.86 -36.24,-12.33 -17.16,-4.26 -39.11,-3.32 -62.2,0.61 -3.99,0.68 -8.02,1.45 -12.07,2.3 -1.39,-2.25 -2.76,-4.52 -4.13,-6.78 5.01,-1.09 10.01,-2.07 14.97,-2.91 24,-4.08 46.97,-5.02 65.22,-0.49 14.38,3.58 26.2,8.28 37.21,12.65 15.38,6.11 29.16,11.59 46.05,12.2 23.29,0.85 43.99,-8.24 65.09,-17.5 23.05,-10.11 46.56,-20.43 75.03,-19.06 24.89,1.2 43.34,7.55 61.4,13.76 29.01,9.98 57.04,19.62 109.83,5.6l3.72 6.75z"/>
  <path class="fil6" d="M556.02 1646.07c21.59,-6.03 40.6,-8.5 58.63,-8.41 21.11,0.1 41.1,10.01 62.15,16.91 28.71,9.41 61.1,8.6 89.84,-0.24 23.42,-7.21 46.97,-17.49 69.15,-15.8 44.87,-1.26 78.32,25.67 119.52,23.59l2.25 -0.11 -2.07 3.85 -4.54 49.36 24.18 37.86 -0.03 3.8c-59.13,7.75 -84.51,-27.93 -134.67,-30.56 -46.42,-2.42 -70.66,36 -113.47,34.31 -25.64,-1.01 -42.67,-15.32 -72.56,-23.38 -2.7,-0.73 -5.53,-1.3 -8.47,-1.73 -31.84,-26.19 -61.91,-56.16 -89.91,-89.45z"/>
  <path class="fil5" d="M553.39 1642.92c4.57,-1.31 9.02,-2.46 13.38,-3.46 17.19,-3.95 32.86,-5.61 47.89,-5.54 16.54,0.08 32.06,5.79 47.86,11.61 5.14,1.89 10.31,3.79 15.44,5.48 13.7,4.49 28.26,6.59 42.84,6.55 15.19,-0.04 30.43,-2.41 44.74,-6.81 4.89,-1.51 9.73,-3.13 14.55,-4.74 18.87,-6.31 37.63,-12.59 55.88,-11.23 23.14,-0.59 43.04,5.99 62.48,12.41 18.68,6.16 36.92,12.19 56.69,11.19l3.72 -0.18 0.78 -0.04 -4.15 7.7c-21.18,1.07 -40.06,-5.17 -59.38,-11.55 -18.94,-6.25 -38.33,-12.66 -60.22,-12.04l-0.27 0 -0.11 0c-16.83,-1.28 -34.88,4.76 -53.04,10.84 -4.93,1.64 -9.87,3.3 -14.73,4.79 -14.99,4.62 -30.98,7.09 -46.94,7.14 -15.37,0.04 -30.72,-2.18 -45.16,-6.91 -5.36,-1.76 -10.55,-3.67 -15.7,-5.56 -15.21,-5.6 -30.14,-11.1 -45.31,-11.17 -14.44,-0.07 -29.55,1.54 -46.19,5.37 -3.2,0.73 -6.46,1.55 -9.78,2.45 -1.77,-2.08 -3.51,-4.2 -5.27,-6.3zm421.69 117.77c-34.31,4.42 -57.48,-5.45 -80.5,-15.27 -16.75,-7.15 -33.44,-14.26 -54.34,-15.36 -22.78,-1.19 -40.3,8.07 -57.49,17.16 -17.19,9.09 -34.07,18.01 -55.94,17.15 -15.86,-0.63 -28.29,-5.99 -42.18,-11.97 -9.28,-4.01 -19.24,-8.31 -31.2,-11.53 -0.44,-0.12 -0.89,-0.23 -1.34,-0.35 -3.83,-3.07 -7.65,-6.18 -11.43,-9.36 5.2,0.43 10.12,1.23 14.71,2.47 12.52,3.37 22.72,7.78 32.22,11.87 13.24,5.71 25.09,10.82 39.51,11.39 19.84,0.78 35.86,-7.68 52.16,-16.3 18.09,-9.56 36.53,-19.3 61.36,-18 22.24,1.16 39.53,8.53 56.89,15.94 22.19,9.46 44.52,18.98 77.62,14.55l-0.05 7.61z"/>
  <path class="fil5" d="M931.87 1856.1l0 -8.27 0 -7.97 5.63 -5.87 17.55 -18.29 0 -63.79 -18.95 -22.51 -4.76 -5.67 0 -7.15 0 -47.71 0 -6.25 3.59 -5.16 20.21 -29.04 0 -52.55 -19.66 -25.74 -4.14 -5.43 0 -6.69 0 -58.11 0 -7.21 4.69 -5.61 18 -21.55 0 -64.27 -19.28 -22.11 -5 -5.74 0 -7.39 0 -29.65 40.03 0 0 22.25 19.28 22.11 5 5.74 0 7.39 0 78.88 0 7.21 -4.69 5.61 -18 21.55 0 44.2 19.66 25.75 4.14 5.42 0 6.7 0 65.48 0 6.25 -3.59 5.17 -20.21 29.04 0 34.3 18.95 22.51 4.76 5.67 0 7.16 0 78.91 0 7.98 -5.63 5.86 -17.55 18.29 0 1.51c-1.9,0.03 -3.8,0.1 -5.7,0.1 -11.52,0 -22.96,-0.46 -34.33,-1.31z"/>
  <path class="fil4" d="M964.81 1857.39l0 -4.44 23.18 -24.16 0 -88.6 -23.72 -28.18 0 -39.12 23.81 -34.2 0 -73.81 -23.81 -31.17 0 -49.17 22.7 -27.17 0 -88.25 -24.28 -27.84 0 -17.82 -25.85 0 0 27.29 24.28 27.85 0 69.5 -22.69 27.16 0 67.04 23.81 31.17 0 57.17 -23.81 34.21 0 56.3 23.71 28.17 0 69.23 -23.18 24.16 0 13.83c8.58,0.51 17.19,0.82 25.85,0.85z"/>
  <polygon class="fil0" points="1542,1342.3 390.42,1342.3 519.29,1189.89 729.14,1189.89 774.58,1269.84 871.04,1079.92 1087.96,1079.92 1170.75,1265.46 1202.85,1210.9 1433.7,1210.9 "/>
  <path class="fil5" d="M740.97 284.11c-14.06,0.38 -27.79,16.09 -41.52,31.79 -7.24,8.28 -14.48,16.57 -21.98,22.89l-4.84 -5.71c7.13,-6.02 14.16,-14.06 21.19,-22.1 14.81,-16.94 29.62,-33.88 46.98,-34.35l0.17 7.48zm85.64 662.86l2.28 27.13c8.49,2.28 16.99,4.08 25.34,5.85 19.98,4.22 39.16,8.27 56,18.28 4.97,2.95 5.83,2.38 2.39,7 -7.03,9.46 -6.54,5.63 -16.22,-0.25 -13.26,-8.05 -27.07,-14.19 -43.69,-17.7 -22.77,-4.82 -46.59,-9.85 -69.06,-24.15 -5.91,-0.23 -10.86,-1.9 -15.81,-3.56 -9.14,-3.08 -18.29,-6.16 -33.48,2.67l-3.75 -6.48c18.1,-10.52 28.86,-6.9 39.61,-3.29l1 0.34 -66.6 -56.5 -6.02 -3.01c-8.78,-4.39 -17.86,-4.68 -26.96,-4.96 -6.27,-0.2 -12.56,-0.4 -19.05,-1.85l1.62 -7.3c5.79,1.29 11.73,1.48 17.66,1.67 5.84,0.18 11.66,0.37 17.56,1.53 -2.17,-2.52 -4.38,-5 -6.6,-7.47 -10,-11.15 -19.99,-22.3 -26.01,-37.8 -13.53,-4.17 -21.15,-13.68 -28.77,-23.19 -3.68,-4.6 -7.36,-9.19 -11.67,-12.99l-1.15 -1.01 -0.11 -1.52c-0.45,-6.01 -2.3,-11.85 -4.15,-17.69 -3.87,-12.23 -7.74,-24.46 -0.88,-40.11 -5.19,-6.45 -9.28,-13.24 -13.29,-19.9 -8.09,-13.45 -15.91,-26.42 -31.61,-33.76l3.17 -6.78c5.24,2.45 9.67,5.39 13.52,8.68 1.32,-6.8 1.77,-14.24 2.2,-21.66 0.52,-8.65 1.03,-17.3 2.86,-25.29 -2.93,-7.64 -6.35,-15.03 -9.77,-22.41 -7.88,-16.99 -15.76,-33.99 -18.29,-55.26l3.72 -0.44 -2.3 -2.95c9.2,-7.17 17.42,-16.3 25.54,-25.62l-5.69 -103.61 7.48 -0.41 1.19 21.74 53.75 -24.43 3.08 6.83 -56.39 25.63 3.64 66.14c3.14,-3.59 6.31,-7.14 9.56,-10.55l5.43 5.16c-4.7,4.93 -9.21,10.13 -13.73,15.33 -8.75,10.08 -17.5,20.16 -27.57,28.35 2.65,19.17 10.02,35.06 17.38,50.95 2.25,4.86 4.5,9.71 6.63,14.69 2.73,-5.81 6.73,-10.99 12.67,-15.2l4.31 6.1c-6.89,4.88 -10.62,11.75 -12.77,19.62l0.25 0.67 -0.47 0.16c-1.99,7.79 -2.51,16.52 -3.03,25.23 -0.55,9.38 -1.11,18.75 -3.41,27.39 5.91,6.62 10.45,14.15 15.07,21.83 4.26,7.07 8.61,14.28 14.12,20.79l1.58 1.87 -1.08 2.2c-6.92,14.01 -3.31,25.39 0.28,36.76 1.83,5.78 3.66,11.57 4.34,17.87 4.25,3.94 7.84,8.43 11.43,12.91 7.19,8.98 14.39,17.97 26.71,21.18l1.91 0.49 0.67 1.87c5.42,15.08 15.32,26.12 25.22,37.16 3.18,3.55 6.36,7.09 9.4,10.76l34.8 29.53 -2.16 -17.74 7.44 -0.88 3.14 25.76 46.03 39.05c11.01,7.1 22.52,11.87 34.13,15.46l-2.05 -24.29 7.48 -0.62zm-178.24 -583.01c-0.17,10.65 -5.3,22.39 -12.6,33.4 -9.07,13.68 -21.58,26.43 -31.93,34.51l-4.61 -5.89c9.81,-7.66 21.68,-19.76 30.29,-32.75 6.6,-9.95 11.23,-20.32 11.37,-29.36l7.48 0.09zm59.61 -14.1c-12.71,3.75 -25.14,3.16 -37.57,2.57 -5.99,-0.28 -11.98,-0.57 -17.86,-0.35l-0.26 -7.48c6.22,-0.23 12.35,0.06 18.47,0.35 11.8,0.56 23.6,1.12 35.11,-2.27l2.11 7.18z"/>
  <path class="fil1" d="M672.67 1004.8c44.72,3.89 52.37,-24.24 86.34,-34.8 33.26,-10.34 45.26,10.54 74.93,11.09 -12.96,23.16 -15.72,38.12 -44.75,43.4 -25.49,7.09 -75.17,1.14 -116.52,-19.69z"/>
  <g>
   <path class="fil5" d="M672.89 1002.82c26.66,2.32 39.8,-7.19 53.67,-17.25 9.01,-6.52 18.31,-13.27 31.73,-17.44 20.51,-6.38 33.14,-1.4 46.41,3.82 8.67,3.41 17.63,6.94 29.3,7.16 1.23,0.02 2.2,0.92 2.17,2.02 -0.01,0.34 -0.11,0.65 -0.29,0.93 -1.98,3.53 -3.79,7.03 -5.49,10.31 -9.2,17.73 -15.24,29.36 -40.57,34.02 -13.68,3.8 -34.07,3.96 -56.36,0.19 -20.17,-3.41 -41.98,-10.03 -61.9,-20.06 -1.06,-0.53 -1.43,-1.74 -0.82,-2.7 0.45,-0.7 1.3,-1.06 2.15,-0.99l0 -0.01zm56.48 -14.17c-12.8,9.27 -25.01,18.11 -46.99,18.49 17.03,7.55 35.06,12.69 51.92,15.54 21.6,3.65 41.22,3.54 54.24,-0.08l0 0 0.22 -0.05c23.27,-4.23 28.93,-15.14 37.58,-31.81 1.27,-2.46 2.62,-5.05 4.13,-7.82 -10.87,-0.77 -19.35,-4.11 -27.57,-7.35 -12.45,-4.9 -24.3,-9.57 -43.17,-3.7 -12.64,3.93 -21.65,10.46 -30.36,16.78zm106.51 -6.59c-0.39,0.61 -1.14,1.02 -1.99,1.01l1.99 -1.01z"/>
  </g>
  <path class="fil1" d="M601.32 922.51c41.01,18.26 57.41,-5.84 92.97,-4.75 34.82,1.07 39.35,24.72 67.22,34.92 -52.37,46.71 -110.07,21.3 -160.19,-30.17z"/>
  <path class="fil5" d="M602.17 920.71c24.45,10.89 39.97,6.17 56.37,1.19 10.63,-3.23 21.63,-6.57 35.68,-6.14 21.47,0.66 31.79,9.48 42.63,18.75 7.08,6.05 14.4,12.3 25.36,16.31 1.15,0.42 1.78,1.59 1.39,2.62 -0.11,0.3 -0.31,0.56 -0.55,0.76 -24.82,22.11 -50.89,28.38 -76.85,23.49 -29.8,-5.61 -59.28,-25.98 -86.49,-53.91 -0.83,-0.86 -0.78,-2.12 0.1,-2.82 0.66,-0.52 1.58,-0.58 2.36,-0.24l0 -0.01zm58.02 5.01c-15.18,4.61 -29.64,9.01 -50.66,2.1 24.67,23.86 50.95,40.99 77.29,45.95 23.78,4.47 47.73,-1.02 70.75,-20.53 -9.99,-4.26 -16.91,-10.17 -23.61,-15.9 -10.17,-8.69 -19.85,-16.97 -39.6,-17.57 -13.23,-0.41 -23.87,2.83 -34.17,5.95z"/>
  <path class="fil1" d="M753.84 830.2c27.84,30.41 4.36,52.32 15.66,82.97 11.07,30.01 36.01,34.95 53.01,56.27 32.71,-54.38 -9.25,-110.56 -68.67,-139.24z"/>
  <path class="fil5" d="M760.74 835.81c11.22,15.8 9.8,29.46 8.33,43.61 -1.1,10.49 -2.22,21.26 2.2,33.23 6.55,17.78 18.31,26.56 30.24,35.48 7.11,5.3 14.28,10.66 20.61,17.99 0.9,-1.61 1.75,-3.23 2.54,-4.86 11.06,-22.92 9.01,-45.93 -1.65,-66.72 -10.76,-20.97 -30.28,-39.76 -54,-54.03 -2.7,-1.63 -5.46,-3.19 -8.27,-4.7zm4.55 42.77c1.58,-15.19 3.1,-29.79 -12.76,-47.11l0 0c-0.53,-0.58 -0.74,-1.41 -0.48,-2.13 0.35,-0.97 1.44,-1.38 2.43,-0.91 5.54,2.68 10.94,5.6 16.16,8.74 24.4,14.67 44.52,34.09 55.68,55.84 11.25,21.93 13.42,46.19 1.78,70.31 -1.15,2.38 -2.45,4.79 -3.9,7.21 -0.11,0.19 -0.25,0.36 -0.42,0.5 -0.78,0.64 -1.98,0.43 -2.68,-0.45 -6.38,-7.99 -14.02,-13.7 -21.59,-19.36 -12.47,-9.31 -24.75,-18.48 -31.77,-37.53 -4.76,-12.92 -3.59,-24.16 -2.45,-35.11z"/>
  <path class="fil1" d="M529.04 810.3c34.29,28.97 56.76,10.41 90.6,21.37 33.14,10.73 30.89,34.71 54.82,52.27 -63.33,30.26 -111.64,-10.24 -145.42,-73.64z"/>
  <path class="fil5" d="M530.36 808.81c20.44,17.27 36.66,17.07 53.79,16.86 11.13,-0.13 22.62,-0.27 35.98,4.05 20.44,6.63 27.89,17.97 35.72,29.9 5.11,7.78 10.39,15.83 19.8,22.74 0.99,0.72 1.26,2.02 0.61,2.9 -0.2,0.26 -0.46,0.46 -0.75,0.58 -30,14.31 -56.78,13.06 -80.35,1.12 -27.05,-13.7 -49.69,-41.48 -68.02,-75.89 -0.56,-1.06 -0.16,-2.26 0.88,-2.68 0.77,-0.31 1.69,-0.12 2.34,0.42l0 0zm54.31 20.99c-15.86,0.2 -30.97,0.38 -49.23,-12.11 17.03,29.79 37.5,53.57 61.41,65.68 21.58,10.93 46.12,12.33 73.66,0.02 -8.4,-6.89 -13.39,-14.49 -18.23,-21.86 -7.35,-11.18 -14.34,-21.83 -33.13,-27.92 -12.59,-4.08 -23.72,-3.94 -34.48,-3.81z"/>
  <path class="fil1" d="M690.1 776.23c8.26,32.65 -6.1,47.68 -5.71,68.6 0.65,35.69 33.63,39.75 51.58,62.26 32.71,-54.37 -2.9,-99.44 -45.87,-130.86z"/>
  <path class="fil5" d="M693.01 780.7c3.65,18.35 0.19,30.99 -3,42.65 -1.98,7.26 -3.86,14.13 -3.72,21.66 0.4,22.14 14.1,31.65 28.4,41.57 7.29,5.06 14.74,10.23 20.89,17.21 14.68,-25.73 13.78,-49.23 4.14,-70.05 -9.38,-20.26 -27.03,-38.1 -46.71,-53.04zm-6.67 41.19c3.32,-12.14 6.95,-25.4 1.96,-45.25 -0.17,-0.54 -0.13,-1.13 0.17,-1.6 0.54,-0.87 1.71,-1.03 2.61,-0.37 21.75,15.9 41.66,35.3 52.03,57.69 10.45,22.57 11.23,48.04 -5.44,75.81 -0.11,0.2 -0.25,0.38 -0.43,0.52 -0.78,0.63 -1.98,0.43 -2.68,-0.45 -6.04,-7.58 -13.98,-13.08 -21.74,-18.47 -15.26,-10.59 -29.89,-20.74 -30.34,-45.12 -0.15,-8.1 1.8,-15.23 3.86,-22.76z"/>
  <path class="fil1" d="M498.41 688.29c25.3,37.09 51.91,25.2 81.59,44.81 29.07,19.21 20.49,41.7 38.86,65.03 -69.11,12.22 -104.85,-39.71 -120.45,-109.84z"/>
  <path class="fil5" d="M500.08 687.22c15.08,22.1 30.76,26.24 47.33,30.62 10.75,2.84 21.86,5.78 33.58,13.52 17.93,11.85 22.08,24.77 26.43,38.35 2.85,8.87 5.79,18.04 13,27.21 0.76,0.96 0.68,2.29 -0.18,2.95 -0.27,0.21 -0.59,0.33 -0.92,0.37 -32.71,5.76 -58.17,-2.61 -77.69,-20.4 -22.4,-20.43 -36.79,-53.25 -45.25,-91.31 -0.26,-1.17 0.44,-2.22 1.56,-2.35 0.83,-0.1 1.66,0.34 2.14,1.04l0 0zm46.72 34.74c-15.33,-4.05 -29.94,-7.92 -44.2,-24.84 8.45,33.27 21.82,61.65 41.62,79.71 17.88,16.3 41.15,24.21 70.98,19.71 -6.26,-8.88 -9.04,-17.54 -11.73,-25.94 -4.09,-12.74 -7.98,-24.87 -24.46,-35.76 -11.04,-7.29 -21.8,-10.13 -32.21,-12.88z"/>
  <path class="fil1" d="M660.84 695.38c-3.29,33.51 -21.89,42.78 -28.62,62.6 -11.47,33.8 18.18,48.8 27.44,76.06 49.2,-40.08 30.97,-94.55 1.18,-138.66z"/>
  <path class="fil5" d="M662.07 700.56c-2.79,18.5 -10.33,29.23 -17.28,39.12 -4.32,6.15 -8.42,11.97 -10.84,19.11 -7.12,20.97 2.55,34.56 12.63,48.73 5.16,7.24 10.41,14.63 13.83,23.28 22.53,-19.23 29.65,-41.65 27.63,-64.5 -1.96,-22.24 -12.52,-45.01 -25.97,-65.74zm-20.23 36.5c7.24,-10.3 15.14,-21.54 17.17,-41.91 0.02,-0.57 0.27,-1.11 0.71,-1.45 0.8,-0.63 1.96,-0.39 2.58,0.54 15.07,22.33 27.23,47.33 29.4,71.91 2.18,24.77 -5.71,48.99 -30.81,69.48 -0.17,0.15 -0.36,0.27 -0.58,0.34 -0.94,0.33 -2.01,-0.26 -2.37,-1.33 -3.11,-9.17 -8.71,-17.05 -14.19,-24.74 -10.77,-15.14 -21.09,-29.65 -13.25,-52.74 2.59,-7.66 6.85,-13.71 11.34,-20.1z"/>
  <path class="fil1" d="M494.75 558.47c15.37,42.18 44.1,37.23 68.02,63.56 23.42,25.78 9.56,45.47 21.6,72.6 -69.99,-5.21 -91.8,-64.35 -89.62,-136.16z"/>
  <path class="fil5" d="M496.64 557.83c9.16,25.15 23.33,33.04 38.31,41.37 9.72,5.4 19.76,10.99 29.21,21.39 14.44,15.89 15.27,29.44 16.14,43.68 0.57,9.3 1.16,18.91 5.89,29.58 0.5,1.12 0.09,2.38 -0.91,2.81 -0.31,0.14 -0.63,0.18 -0.95,0.14 -33.14,-2.49 -55.76,-16.88 -70.28,-38.95 -16.67,-25.32 -22.51,-60.68 -21.32,-99.66 0.03,-1.19 0.97,-2.03 2.09,-1.88 0.83,0.11 1.52,0.73 1.81,1.52l0.01 0zm36.71 45.2c-13.87,-7.71 -27.08,-15.06 -36.71,-34.97 -0.02,34.32 5.93,65.12 20.66,87.51 13.3,20.21 33.9,33.62 63.92,36.62 -3.87,-10.15 -4.43,-19.22 -4.97,-28.03 -0.81,-13.35 -1.59,-26.06 -14.88,-40.69 -8.9,-9.8 -18.62,-15.2 -28.02,-20.44z"/>
  <path class="fil1" d="M532.45 421.96c-0.34,44.89 28.31,50.29 41.53,83.31 12.94,32.34 -6.92,45.95 -5.12,75.58 -63.76,-29.33 -63.54,-92.37 -36.41,-158.89z"/>
  <path class="fil5" d="M534.44 422.02c-0.2,26.76 10.33,39.1 21.45,52.14 7.21,8.45 14.67,17.2 19.9,30.24 7.98,19.95 4.02,32.93 -0.13,46.57 -2.72,8.91 -5.53,18.13 -4.82,29.77 0.08,1.23 -0.75,2.27 -1.84,2.33 -0.34,0.01 -0.67,-0.07 -0.96,-0.23 -30.17,-13.9 -46.32,-35.28 -52.22,-61.02 -6.78,-29.55 0.1,-64.72 14.82,-100.83 0.46,-1.1 1.63,-1.57 2.63,-1.03 0.73,0.39 1.16,1.21 1.16,2.06l0.01 0zm18.61 55.17c-10.3,-12.06 -20.11,-23.56 -22.19,-45.58 -12,32.15 -17.19,63.08 -11.2,89.21 5.41,23.58 20.02,43.35 47.11,56.64 -0.09,-10.87 2.56,-19.56 5.13,-28 3.9,-12.8 7.61,-24.99 0.27,-43.33 -4.92,-12.28 -12.14,-20.75 -19.12,-28.94z"/>
  <path class="fil1" d="M661.2 523.61c-19.44,27.48 -40.2,26.33 -55.85,40.22 -26.7,23.69 -8.37,51.4 -13.81,79.67 62.58,-10.46 73.71,-66.82 69.66,-119.89z"/>
  <path class="fil5" d="M659.7 528.72c-11.58,14.7 -23.44,20.29 -34.37,25.43 -6.81,3.21 -13.25,6.25 -18.89,11.25 -16.56,14.69 -14.89,31.28 -13.14,48.59 0.89,8.84 1.8,17.86 0.49,27.07 29.1,-5.56 46.38,-21.51 55.94,-42.37 9.31,-20.29 11.4,-45.3 9.97,-69.97zm-35.65 21.7c11.4,-5.37 23.84,-11.23 35.69,-27.95 0.31,-0.46 0.77,-0.8 1.32,-0.88 1,-0.15 1.89,0.63 1.97,1.75 2.05,26.86 0.23,54.6 -10.05,77.03 -10.36,22.61 -29.22,39.76 -61.19,45.12 -0.21,0.05 -0.42,0.06 -0.64,0.02 -0.99,-0.19 -1.62,-1.23 -1.4,-2.34 1.83,-9.51 0.86,-19.12 -0.09,-28.52 -1.86,-18.48 -3.65,-36.2 14.59,-52.38 6.06,-5.38 12.74,-8.53 19.8,-11.85z"/>
  <path class="fil1" d="M697.56 448.73c-28.05,18.62 -46.99,10.06 -66.6,17.37 -33.45,12.46 -26.35,44.92 -41.63,69.32 62.15,12.82 92.86,-35.73 108.23,-86.69z"/>
  <path class="fil5" d="M694.32 452.96c-16.1,9.53 -29.18,10.46 -41.24,11.32 -7.5,0.53 -14.6,1.04 -21.67,3.67 -20.75,7.73 -25.17,23.81 -29.78,40.58 -2.36,8.57 -4.77,17.3 -9.31,25.42 29.14,5.32 51.02,-3.33 67.46,-19.33 16,-15.57 26.97,-38.14 34.54,-61.66zm-41.08 7.38c12.56,-0.9 26.27,-1.88 43.35,-13.18 0.45,-0.33 1.02,-0.48 1.56,-0.36 1,0.22 1.54,1.27 1.22,2.34 -7.79,25.79 -19.48,51.01 -37.17,68.22 -17.83,17.36 -41.61,26.54 -73.37,20.01 -0.21,-0.04 -0.4,-0.11 -0.58,-0.22 -0.86,-0.53 -1.06,-1.73 -0.46,-2.68 5.13,-8.21 7.7,-17.53 10.2,-26.63 4.93,-17.92 9.66,-35.08 32.51,-43.6 7.59,-2.82 14.95,-3.35 22.74,-3.9z"/>
  <path class="fil1" d="M595.7 304.45c-11.44,43.41 14.97,55.74 19.6,91 4.53,34.54 -18.09,42.8 -23.68,71.96 -54.51,-44.21 -38.68,-105.23 4.08,-162.96z"/>
  <path class="fil5" d="M597.61 305c-6.82,25.88 0.32,40.44 7.87,55.83 4.9,9.98 9.96,20.3 11.79,34.23 2.79,21.3 -4.26,32.9 -11.67,45.09 -4.84,7.96 -9.84,16.19 -12.04,27.65 -0.22,1.2 -1.28,2.01 -2.36,1.79 -0.33,-0.06 -0.62,-0.22 -0.86,-0.44 -25.79,-20.95 -36.15,-45.67 -35.49,-72.07 0.76,-30.31 16.14,-62.68 39.35,-94.01 0.71,-0.96 1.96,-1.12 2.79,-0.36 0.62,0.57 0.83,1.47 0.62,2.29l0 0zm4.36 58.07c-6.98,-14.24 -13.64,-27.82 -10.19,-49.67 -19.59,28.18 -32.29,56.87 -32.96,83.66 -0.6,24.19 8.66,46.96 31.61,66.55 2.61,-10.55 7.33,-18.32 11.91,-25.86 6.95,-11.44 13.56,-22.32 11,-41.91 -1.72,-13.12 -6.63,-23.11 -11.37,-32.77z"/>
  <path class="fil1" d="M751.9 372.67c-31.13,12.83 -48.05,0.76 -68.71,4.13 -35.23,5.75 -34.55,38.97 -54.26,59.94 58.48,24.62 98.01,-17.06 122.97,-64.07z"/>
  <path class="fil5" d="M747.9 376.19c-17.65,6.23 -30.66,4.61 -42.65,3.12 -7.47,-0.93 -14.53,-1.81 -21.97,-0.6 -21.85,3.56 -29.31,18.48 -37.09,34.04 -3.97,7.95 -8.02,16.06 -14.05,23.13 27.56,10.87 50.7,6.62 69.92,-5.89 18.72,-12.18 33.86,-32.19 45.84,-53.8zm-41.73 -0.72c12.5,1.55 26.14,3.25 45.08,-4.53 0.51,-0.24 1.1,-0.28 1.6,-0.05 0.93,0.41 1.26,1.54 0.74,2.53 -12.63,23.79 -29,46.27 -49.68,59.73 -20.85,13.56 -45.95,17.97 -75.83,5.42 -0.2,-0.08 -0.39,-0.19 -0.56,-0.34 -0.73,-0.68 -0.7,-1.9 0.07,-2.72 6.63,-7.06 10.96,-15.7 15.17,-24.15 8.31,-16.62 16.27,-32.54 40.34,-36.47 7.99,-1.3 15.32,-0.39 23.07,0.58z"/>
  <path class="fil1" d="M707.5 223.54c-26.66,36.12 -6.66,57.33 -15.37,91.81 -8.54,33.78 -32.6,33.11 -48.56,58.14 -34.35,-61.2 2.88,-112.07 63.93,-149.95z"/>
  <path class="fil5" d="M709.06 224.77c-15.88,21.53 -14.62,37.7 -13.28,54.78 0.86,11.09 1.76,22.54 -1.68,36.17 -5.26,20.82 -16.1,29 -27.48,37.6 -7.43,5.61 -15.12,11.41 -21.39,21.25 -0.66,1.04 -1.94,1.4 -2.86,0.8 -0.28,-0.18 -0.49,-0.43 -0.63,-0.72 -16.25,-28.99 -16.76,-55.79 -6.39,-80.09 11.88,-27.89 38.12,-52.3 71.25,-72.86 1.02,-0.62 2.24,-0.31 2.74,0.71 0.36,0.75 0.22,1.67 -0.28,2.36l0 0zm-17.37 55.57c-1.23,-15.81 -2.41,-30.89 8.86,-49.93 -28.61,18.96 -50.99,40.94 -61.51,65.6 -9.48,22.25 -9.28,46.83 4.82,73.51 6.32,-8.84 13.57,-14.32 20.61,-19.63 10.69,-8.07 20.85,-15.74 25.69,-34.9 3.24,-12.83 2.37,-23.92 1.53,-34.65z"/>
  <path class="fil1" d="M828.26 321.38c-33.52,3.19 -46.18,-13.3 -66.92,-16.11 -35.37,-4.79 -44.42,27.18 -69.4,41.49 48.75,40.62 98.73,12.3 136.32,-25.38z"/>
  <path class="fil5" d="M823.41 323.58c-18.7,0.81 -30.67,-4.54 -41.7,-9.47 -6.87,-3.07 -13.38,-5.98 -20.84,-6.99 -21.94,-2.97 -33.43,9.12 -45.41,21.73 -6.12,6.44 -12.36,13.02 -20.2,18.03 23.19,18.43 46.56,21.13 68.6,14.77 21.46,-6.18 41.78,-20.9 59.55,-38.07zm-39.7 -12.87c11.5,5.13 24.05,10.74 44.45,8.82 0.55,-0.07 1.12,0.06 1.53,0.42 0.78,0.67 0.76,1.85 -0.03,2.64 -19.03,19.07 -41.24,35.79 -64.95,42.62 -23.9,6.89 -49.19,3.78 -74.09,-16.94 -0.18,-0.13 -0.34,-0.3 -0.45,-0.5 -0.51,-0.86 -0.13,-2.02 0.85,-2.58 8.41,-4.81 15.06,-11.82 21.57,-18.66 12.79,-13.47 25.05,-26.38 49.22,-23.11 8.03,1.09 14.77,4.1 21.9,7.29z"/>
  <path class="fil1" d="M853.38 235.39c-70.2,15.49 -69.69,-28.52 -128.75,51.48 55.74,30.33 101.55,-13.24 128.75,-51.48z"/>
  <g>
   <path class="fil5" d="M849.1 238.18c-21.6,4.18 -36.26,2.7 -48.21,1.5 -23.55,-2.38 -36.14,-3.65 -73.41,46.43 26.5,13.73 50.64,10.41 71.42,-0.9 20.05,-10.92 37.09,-29.26 50.2,-47.03zm-47.37 -2.3c12.47,1.26 27.96,2.83 51.43,-2.35l0 0c0.48,-0.1 0.98,-0.04 1.4,0.22 0.86,0.53 1.03,1.7 0.39,2.61 -13.76,19.34 -32.26,40.05 -54.44,52.13 -22.38,12.18 -48.4,15.6 -76.9,0.12l-0.19 -0.11c-0.85,-0.55 -1,-1.73 -0.33,-2.63 39.8,-53.91 53.23,-52.55 78.64,-49.99zm-78.12 52.73l-0.08 -0.05 0.08 0.05z"/>
  </g>
  <path class="fil1" d="M655.18 606.73c-12.27,31.35 -32.7,35.21 -44.56,52.46 -20.23,29.4 4.22,51.9 5.72,80.65 58.25,-25.19 55.51,-82.56 38.84,-133.11z"/>
  <path class="fil5" d="M654.95 612.05c-7.71,17.05 -17.88,25.32 -27.26,32.94 -5.83,4.75 -11.36,9.24 -15.63,15.45 -12.55,18.25 -6.94,33.95 -1.09,50.33 2.99,8.36 6.04,16.9 6.97,26.16 26.92,-12.38 39.86,-32.02 44.14,-54.56 4.15,-21.94 0.18,-46.72 -7.13,-70.32zm-29.39 29.62c9.77,-7.94 20.43,-16.61 27.92,-35.67 0.18,-0.53 0.56,-0.98 1.08,-1.2 0.94,-0.38 1.99,0.16 2.33,1.22 8.44,25.59 13.34,52.95 8.74,77.2 -4.63,24.43 -18.81,45.6 -48.54,58.48 -0.2,0.1 -0.41,0.17 -0.64,0.18 -1.01,0.06 -1.87,-0.8 -1.92,-1.93 -0.51,-9.67 -3.76,-18.77 -6.93,-27.67 -6.25,-17.49 -12.24,-34.26 1.58,-54.35 4.58,-6.67 10.32,-11.33 16.38,-16.26z"/>
  <path class="fil5" d="M1083.91 979.95c-19.97,4.22 -39.15,8.27 -55.99,18.28 -4.98,2.95 -5.84,2.38 -2.4,7 7.04,9.46 6.55,5.63 16.23,-0.25 13.26,-8.05 27.07,-14.19 43.69,-17.7 16.59,-3.51 54.64,-14.88 71.42,-22.12l-3.99 -6.45c-2.84,1.2 -30.68,13.15 -68.96,21.24z"/>
  <path class="fil4" d="M933.19 803.19c-27.98,22.53 -30.63,52.66 13.55,70.15 -5.2,7.85 -67.57,39.09 4.96,67.68 2.26,13.24 -1.31,23.7 2.56,29.17 14.14,23.85 -1.81,29.65 17.63,7.38 8.12,-7.82 1.05,-25.21 3.69,-48.05 10.31,-21.19 61.59,-42.91 5.28,-68.49 56.66,-19.52 26.19,-43.3 10.13,-52.14 67.16,-39.76 116.28,-123.94 133.96,-222.53 -14.07,-21.75 -35.99,-38.4 -3.95,-70.37 -45.35,-27.95 -25.29,-36.54 -19.54,-49.86 -33.52,-15.87 -25.02,-24.51 -19.35,-41.97 -40.89,-3.19 -33.34,-25.89 -25.29,-39.2 -63.9,4.89 -131.22,-120.85 -93.17,-180.53 -111.54,59.57 -3.65,210.47 -75.95,196.34 -32.55,96.32 163.86,151.4 45.49,402.42zm86.78 -411.06c5.94,0 10.76,4.82 10.76,10.76 0,5.94 -4.82,10.76 -10.76,10.76 -5.94,0 -10.76,-4.82 -10.76,-10.76 0,-5.94 4.82,-10.76 10.76,-10.76zm72.41 175.35c5.94,0 10.76,4.82 10.76,10.75 0,5.95 -4.82,10.76 -10.76,10.76 -5.94,0 -10.76,-4.81 -10.76,-10.76 0,-5.93 4.82,-10.75 10.76,-10.75zm-8.15 -48.86c5.95,0 10.76,4.82 10.76,10.76 0,5.94 -4.81,10.76 -10.76,10.76 -5.94,0 -10.75,-4.82 -10.75,-10.76 0,-5.94 4.81,-10.76 10.75,-10.76zm-13.37 -45.94c5.94,0 10.76,4.82 10.76,10.76 0,5.94 -4.82,10.76 -10.76,10.76 -5.94,0 -10.76,-4.82 -10.76,-10.76 0,-5.94 4.82,-10.76 10.76,-10.76zm-19.19 -37.22c5.94,0 10.76,4.82 10.76,10.76 0,5.94 -4.82,10.76 -10.76,10.76 -5.94,0 -10.76,-4.82 -10.76,-10.76 0,-5.94 4.82,-10.76 10.76,-10.76z"/>
  <path class="fil5" d="M934.61 805.46c-8.39,6.76 -14.39,14.17 -17.35,21.65 -1.78,4.5 -2.44,9.02 -1.83,13.39 0.61,4.4 2.51,8.74 5.84,12.88 5.18,6.44 13.76,12.37 26.28,17.33l3.18 1.26 -2.02 3.04c-1.14,1.73 -3.9,3.9 -7.41,6.66 -6.99,5.52 -17.26,13.61 -20.79,22.55 -3.97,10.09 1.23,22.04 31.98,34.16l1.35 0.53 0.27 1.58c1.06,6.21 0.9,11.77 0.77,16.54 -0.15,5.11 -0.27,9.19 1.3,11.41l0.12 0.18c4.03,6.8 5.76,12.27 6.53,16.14 1.62,-2.26 3.95,-5.3 7.32,-9.15l0.15 -0.17c3.85,-3.71 3.37,-11.08 2.75,-20.75 -0.47,-7.35 -1.02,-15.9 0.1,-25.53l0.06 -0.54 0.22 -0.45c2.94,-6.05 8.76,-11.9 14.67,-17.84 5.97,-6.01 12.06,-12.13 14.8,-18.16 3.93,-8.65 0.36,-17.96 -22.96,-28.55l-6.49 -2.95 6.69 -2.31c12.76,-4.39 20.93,-8.96 25.74,-13.47 3.94,-3.71 5.45,-7.25 5.36,-10.54 -0.1,-3.35 -1.85,-6.7 -4.41,-9.81 -4.55,-5.54 -11.55,-10.19 -16.91,-13.14l-4.41 -2.42 4.34 -2.57c32.91,-19.48 61.46,-49.77 84.02,-87.25 22.84,-37.93 39.54,-83.23 48.45,-132.13 -1.88,-2.85 -3.93,-5.67 -5.96,-8.45 -13.13,-18.07 -25.2,-34.69 0.45,-62.03 -36.19,-23.09 -28.88,-34 -21.4,-45.15 0.88,-1.31 1.76,-2.63 2.53,-3.94 -29.01,-14.32 -25.63,-23.57 -20.18,-38.46l0.86 -2.37c-19.29,-2.15 -27.47,-9.12 -29.84,-17.41 -2.03,-7.08 0.28,-14.83 3.53,-21.34 -11.54,-0.19 -23.07,-4.31 -34,-11.28 -17.56,-11.2 -33.64,-29.82 -45.76,-51.38 -12.12,-21.55 -20.3,-46.07 -22.06,-69.08 -1.23,-16.12 0.67,-31.53 6.54,-44.72 -52.99,33.6 -46.65,91.65 -41.97,134.54 1.81,16.54 3.38,30.91 1.35,41.32 -2.49,12.75 -9.83,19.4 -27.1,16.6 -10.02,33.09 8.27,61.88 30.26,96.5 39.8,62.62 91.39,143.8 15.79,304.12l-0.27 0.58 -0.48 0.38zm-21.83 19.35c3.25,-8.21 9.64,-16.26 18.51,-23.5 73.76,-156.87 23.27,-236.35 -15.7,-297.68 -23.31,-36.68 -42.61,-67.06 -30.18,-103.86l0.73 -2.15 1.97 0.39c15.29,2.99 21.56,-1.96 23.51,-11.93 1.84,-9.42 0.31,-23.38 -1.44,-39.44 -5.09,-46.54 -12.06,-110.29 52.43,-144.73l8.63 -4.61 -5.6 8.77c-8.72,13.68 -11.66,31.09 -10.25,49.59 1.7,22.12 9.6,45.76 21.29,66.57 11.7,20.8 27.18,38.74 44.04,49.49 11.61,7.41 23.86,11.37 35.94,10.45l5.07 -0.39 -2.89 4.76c-3.69,6.11 -7.3,14.28 -5.39,20.95 1.93,6.72 9.64,12.39 28.82,13.88l3.28 0.26 -1.13 3.49c-0.69,2.13 -1.42,4.13 -2.12,6.03 -4.43,12.11 -7.14,19.5 20.1,32.4l2.41 1.14 -1.15 2.66c-1.17,2.71 -2.76,5.08 -4.34,7.44 -5.92,8.82 -11.71,17.45 22.86,38.74l3.1 1.91 -2.66 2.65c-25.41,25.35 -14.44,40.45 -2.47,56.93 2.28,3.12 4.59,6.31 6.78,9.69l0.64 0.99 -0.22 1.22c-8.98,50.11 -26.03,96.54 -49.42,135.39 -22.07,36.65 -49.78,66.58 -81.67,86.54 4.9,3.07 10.28,7.15 14.16,11.88 3.31,4.02 5.58,8.56 5.72,13.45 0.15,4.97 -1.86,10.06 -7.13,15.01 -4.4,4.14 -11.22,8.25 -21.18,12.2 21.7,11.35 24.37,22.47 19.44,33.34 -3.15,6.94 -9.6,13.42 -15.92,19.77 -5.43,5.46 -10.77,10.83 -13.4,15.93 -0.96,8.81 -0.44,16.9 0.01,23.87 0.72,11.21 1.27,19.77 -4.4,25.33 -5.49,6.29 -8.07,10.27 -9.3,12.17 -1.39,2.15 -2.03,3.13 -3.9,2.34l0.01 -0.01c-1.63,-0.67 -1.69,-1.72 -1.79,-3.61 -0.14,-2.44 -0.5,-8.87 -6.33,-18.73 -2.6,-3.8 -2.46,-8.76 -2.28,-14.94 0.12,-4.05 0.25,-8.7 -0.45,-13.75 -33.48,-13.53 -38.58,-28.24 -33.49,-41.16 4.08,-10.35 15.03,-18.98 22.49,-24.86 1.29,-1.02 2.47,-1.95 3.45,-2.76 -11.21,-4.94 -19.19,-10.8 -24.32,-17.17 -4.01,-4.99 -6.31,-10.32 -7.07,-15.79 -0.76,-5.49 0.03,-11.07 2.2,-16.55zm107.19 -435.47c3.59,0 6.86,1.47 9.23,3.85 2.47,2.46 3.99,5.89 3.99,9.7 0,3.81 -1.52,7.25 -3.99,9.71 -2.37,2.38 -5.64,3.85 -9.23,3.85 -3.59,0 -6.85,-1.47 -9.23,-3.85 -2.46,-2.46 -3.99,-5.9 -3.99,-9.71 0,-3.81 1.53,-7.24 3.99,-9.7 2.38,-2.38 5.64,-3.85 9.23,-3.85zm5.98 8.05c-1.51,-1.52 -3.63,-2.46 -5.98,-2.46 -2.35,0 -4.47,0.94 -5.98,2.46 -1.43,1.43 -2.31,3.38 -2.31,5.5 0,2.13 0.88,4.08 2.31,5.51 1.51,1.51 3.63,2.45 5.98,2.45 2.35,0 4.47,-0.94 5.98,-2.45 1.43,-1.43 2.32,-3.38 2.32,-5.51 0,-2.12 -0.89,-4.07 -2.32,-5.5zm66.43 167.29c3.58,0 6.85,1.47 9.23,3.85 2.46,2.46 3.99,5.89 3.99,9.7 0,3.82 -1.53,7.25 -3.99,9.71 -2.38,2.38 -5.65,3.85 -9.23,3.85 -3.59,0 -6.86,-1.47 -9.24,-3.85 -2.46,-2.46 -3.98,-5.89 -3.98,-9.71 0,-3.81 1.52,-7.24 3.98,-9.7 2.38,-2.38 5.65,-3.85 9.24,-3.85zm5.98 8.05c-1.52,-1.52 -3.63,-2.46 -5.98,-2.46 -2.35,0 -4.47,0.94 -5.98,2.46 -1.43,1.43 -2.32,3.38 -2.32,5.5 0,2.13 0.89,4.08 2.32,5.51 1.51,1.52 3.63,2.46 5.98,2.46 2.35,0 4.46,-0.94 5.98,-2.46 1.43,-1.43 2.31,-3.38 2.31,-5.51 0,-2.12 -0.88,-4.07 -2.31,-5.5zm-14.13 -56.9c3.59,0 6.86,1.47 9.24,3.85 2.46,2.46 3.99,5.89 3.99,9.7 0,3.82 -1.53,7.25 -3.99,9.71 -2.38,2.38 -5.65,3.85 -9.24,3.85 -3.58,0 -6.85,-1.47 -9.23,-3.85 -2.46,-2.46 -3.99,-5.89 -3.99,-9.71 0,-3.81 1.53,-7.24 3.99,-9.7 2.38,-2.38 5.65,-3.85 9.23,-3.85zm5.99 8.05c-1.52,-1.52 -3.63,-2.46 -5.99,-2.46 -2.35,0 -4.46,0.94 -5.98,2.46 -1.43,1.43 -2.31,3.38 -2.31,5.5 0,2.13 0.88,4.08 2.31,5.51 1.52,1.52 3.63,2.45 5.98,2.45 2.36,0 4.47,-0.93 5.99,-2.45 1.43,-1.43 2.31,-3.38 2.31,-5.51 0,-2.12 -0.88,-4.07 -2.31,-5.5zm-19.36 -54c3.59,0 6.85,1.47 9.23,3.85 2.47,2.47 3.99,5.9 3.99,9.71 0,3.81 -1.52,7.24 -3.99,9.71 -2.38,2.37 -5.64,3.85 -9.23,3.85 -3.59,0 -6.86,-1.48 -9.23,-3.85 -2.47,-2.47 -3.99,-5.9 -3.99,-9.71 0,-3.81 1.52,-7.24 3.99,-9.71 2.37,-2.38 5.64,-3.85 9.23,-3.85zm5.98 8.05c-1.51,-1.51 -3.63,-2.45 -5.98,-2.45 -2.35,0 -4.47,0.94 -5.98,2.45 -1.43,1.43 -2.32,3.38 -2.32,5.51 0,2.13 0.89,4.08 2.32,5.51 1.51,1.51 3.63,2.45 5.98,2.45 2.35,0 4.47,-0.94 5.98,-2.45 1.43,-1.43 2.32,-3.38 2.32,-5.51 0,-2.13 -0.89,-4.08 -2.32,-5.51zm-25.17 -45.27c3.58,0 6.85,1.47 9.23,3.85 2.46,2.47 3.99,5.9 3.99,9.71 0,3.81 -1.53,7.24 -3.99,9.71 -2.38,2.38 -5.65,3.85 -9.23,3.85 -3.59,0 -6.86,-1.47 -9.24,-3.85 -2.46,-2.47 -3.98,-5.9 -3.98,-9.71 0,-3.81 1.52,-7.24 3.98,-9.71 2.38,-2.38 5.65,-3.85 9.24,-3.85zm5.98 8.05c-1.51,-1.51 -3.63,-2.45 -5.98,-2.45 -2.35,0 -4.47,0.94 -5.98,2.45 -1.43,1.43 -2.32,3.38 -2.32,5.51 0,2.13 0.89,4.08 2.32,5.51 1.51,1.51 3.63,2.45 5.98,2.45 2.35,0 4.47,-0.94 5.98,-2.45 1.43,-1.43 2.31,-3.38 2.31,-5.51 0,-2.13 -0.88,-4.08 -2.31,-5.51z"/>
  <path class="fil7" d="M939.77 967.73l48.5 -1.35c6.55,9.94 11.2,40.38 -4.19,71.31 -0.08,40.07 9.08,87.98 1.31,126.76 -6.51,32.45 -24.49,60.14 -44.73,62.26 -23.69,2.49 -39.21,-20.35 -17.23,-44.03 13.83,-14.91 29.91,-29.54 29.64,-41.17 -18.1,-34.01 3.31,-51.5 -2.31,-103.14 -19.24,-24.63 -15.19,-61.52 -10.99,-70.64z"/>
  <path class="fil5" d="M939.71 964.88l48.5 -1.34 1.25 -0.04 0.76 1.15c4.04,6.13 7.42,19.3 6.47,35.41 -0.68,11.67 -3.61,24.98 -10.16,38.39 0.01,13.49 1.08,28.09 2.16,42.91 2.09,28.58 4.24,57.99 -0.92,83.74 -3.42,17.08 -9.97,32.91 -18.35,44.58 -8.12,11.29 -18,18.76 -28.54,19.87 -6.69,0.7 -12.79,-0.5 -17.72,-3.1 -4.5,-2.38 -8.07,-5.95 -10.27,-10.34l-0.01 0.01c-2.24,-4.47 -3.06,-9.75 -2.04,-15.48 1.14,-6.34 4.58,-13.22 10.92,-20.05 2.26,-2.44 4.47,-4.76 6.65,-7.04 11.13,-11.66 21.81,-22.86 22.21,-31.26 -10.28,-19.74 -7.88,-34.02 -4.82,-52.14 2.24,-13.37 4.87,-28.93 2.63,-50.54 -7.66,-10.11 -11.67,-22.08 -13.44,-33.46 -2.73,-17.54 -0.07,-33.91 2.62,-39.76l0.67 -1.47 1.43 -0.04zm47.3 4.38l-45.67 1.27c-2.12,6.11 -3.85,19.75 -1.54,34.62 1.67,10.7 5.47,21.94 12.78,31.3l0.52 0.67 0.09 0.89c2.5,23.02 -0.23,39.29 -2.58,53.23 -2.88,17.13 -5.15,30.57 4.54,48.77l0.35 0.65 0.02 0.77c0.26,11.12 -11.54,23.48 -23.83,36.36 -2.24,2.35 -4.51,4.72 -6.6,6.97 -5.54,5.98 -8.51,11.8 -9.45,17.04 -0.76,4.26 -0.16,8.16 1.48,11.44l0 0.01c1.68,3.35 4.48,6.11 8.05,8 4.21,2.22 9.47,3.24 15.28,2.63 9.15,-0.96 17.89,-7.67 25.21,-17.86 7.9,-11 14.09,-25.98 17.34,-42.22 4.98,-24.86 2.86,-53.83 0.8,-81.97 -1.1,-15.11 -2.19,-29.99 -2.17,-44.14l0.01 -0.77 0.32 -0.66c6.36,-12.79 9.19,-25.49 9.84,-36.58 0.8,-13.66 -1.64,-24.73 -4.79,-30.42z"/>
  <path class="fil4" d="M1194.04 236.85c-0.63,17.67 -0.4,11.12 -2.15,54.67 -17.12,6.94 -11.43,4.14 -52.02,21.24 -16.71,2.72 -28.81,-29.17 -9.3,-31.29 -20.63,-20.8 -1.02,-49.6 24.12,-40.17 2.06,-21.09 34.79,-20.64 39.35,-4.45z"/>
  <path class="fil5" d="M1196.45 237.14c-0.42,12.01 -0.46,12.87 -0.98,25.63l-1.17 28.97c-0.03,0.93 -0.6,1.7 -1.4,2.02l0 0c-5.47,2.22 -8.53,3.41 -11.46,4.55 -6.68,2.61 -12.73,4.97 -40.54,16.68 -0.17,0.07 -0.35,0.13 -0.53,0.16l0 0c-8.07,1.31 -15.13,-4.09 -19.03,-11.07 -1.35,-2.42 -2.33,-5.05 -2.83,-7.67 -0.52,-2.67 -0.55,-5.33 0.03,-7.73 0.93,-3.9 3.33,-7.1 7.58,-8.68 -4.81,-6.06 -6.79,-12.59 -6.6,-18.69 0.15,-4.66 1.58,-9.05 3.98,-12.78 2.4,-3.73 5.78,-6.8 9.83,-8.82 5.48,-2.74 12.19,-3.57 19.41,-1.55 1.24,-5.4 4.43,-9.34 8.56,-11.91 3.34,-2.07 7.29,-3.23 11.31,-3.53 3.99,-0.3 8.09,0.25 11.74,1.6 5.72,2.1 10.37,6.16 12.01,12 0.08,0.27 0.11,0.55 0.09,0.82zm-5.81 25.19c0.52,-12.82 0.56,-13.79 0.97,-25.28 -1.24,-3.91 -4.6,-6.7 -8.73,-8.22 -2.97,-1.1 -6.34,-1.54 -9.66,-1.29 -3.3,0.25 -6.52,1.18 -9.21,2.85 -3.65,2.27 -6.35,5.94 -6.91,11.1 0,0.23 -0.04,0.45 -0.11,0.68 -0.42,1.24 -1.78,1.86 -3.05,1.39 -6.84,-2.57 -13.21,-2.03 -18.26,0.49 -3.33,1.67 -6.11,4.19 -8.08,7.24 -1.96,3.05 -3.13,6.64 -3.25,10.43 -0.19,5.88 2.14,12.3 7.89,18.1 0.36,0.37 0.62,0.85 0.71,1.39 0.21,1.32 -0.68,2.51 -1.99,2.66 -4.57,0.49 -6.96,2.96 -7.72,6.15 -0.41,1.74 -0.39,3.7 0,5.71 0.4,2.07 1.19,4.18 2.3,6.16 2.91,5.21 7.96,9.29 13.57,8.53 27.89,-11.75 33.82,-14.07 40.36,-16.62 2.78,-1.08 5.67,-2.21 10.07,-3.98l1.1 -27.49z"/>
  <path class="fil2" d="M1142.53 260.22c10.93,4.08 17.97,-5.03 47.03,5.24 0.49,-11.66 -3.83,-27.52 9.26,-41.64 2.47,20.05 44.81,44.67 15.37,85.42 -29.67,40.41 -63.2,9.94 -84.39,15.14 6.87,-23.79 26.25,-19.9 35.35,-23.98 -15.48,-16.82 -15.27,-30.27 -22.62,-40.18z"/>
  <path class="fil5" d="M1143.31 257.97c3.63,1.35 7.01,0.99 11.22,0.55 7.04,-0.75 16.2,-1.72 32.65,3.63 -0.03,-1.47 -0.09,-3.02 -0.16,-4.6 -0.45,-10.84 -0.98,-23.59 10,-35.42 0.88,-0.95 2.4,-0.97 3.4,-0.04 0.46,0.43 0.73,0.99 0.8,1.56l0 0c0.68,5.55 5.04,11.9 9.9,18.99 11.82,17.23 26.42,38.51 5.05,68.08l-0.07 0.11c-21.11,28.66 -43.94,23.07 -63.3,18.33 -8.42,-2.06 -16.13,-3.95 -22.31,-2.44 -1.27,0.32 -2.62,-0.48 -3.01,-1.77 -0.13,-0.47 -0.13,-0.93 0,-1.35l-0.01 0c5.56,-19.26 18.61,-21.63 28.85,-23.48 1.65,-0.3 3.23,-0.58 4.64,-0.92 -8.05,-9.56 -11.37,-17.96 -14.23,-25.22 -1.85,-4.68 -3.5,-8.86 -6.11,-12.38 -0.82,-1.1 -0.62,-2.6 0.43,-3.36 0.67,-0.48 1.52,-0.55 2.26,-0.27zm11.98 5.35c-2.82,0.3 -5.31,0.57 -7.84,0.39 1.4,2.72 2.54,5.6 3.76,8.69 2.98,7.55 6.46,16.38 15.63,26.36 0.19,0.2 0.35,0.42 0.47,0.68 0.6,1.22 0.12,2.64 -1.08,3.18 -2.51,1.12 -5.51,1.66 -8.81,2.26 -8.28,1.5 -18.65,3.38 -23.99,16.51 6.2,-0.37 13,1.3 20.3,3.09 17.96,4.4 39.13,9.58 58.44,-16.67l0.04 -0.05c19.42,-26.88 5.91,-46.58 -5.03,-62.53 -3.92,-5.72 -7.54,-11 -9.46,-16.14 -6.66,9.48 -6.24,19.68 -5.87,28.5 0.11,2.74 0.22,5.35 0.12,7.92 0.01,0.26 -0.02,0.52 -0.1,0.78 -0.39,1.25 -1.74,1.9 -3.02,1.44 -17.32,-6.13 -26.56,-5.15 -33.56,-4.41z"/>
  <path class="fil4" d="M1277.84 296.22c-3,19.66 -1.9,12.36 -9.55,60.79 -20.25,5.52 -13.46,3.14 -61.56,16.96 -19.25,0.87 -28.77,-36.33 -6.44,-36.15 -20.6,-25.93 5.31,-55.55 32.5,-41.74 5.08,-23.29 42.01,-18.54 45.05,0.14z"/>
  <path class="fil5" d="M1280.13 296.79c-2.13,13.98 -2.27,14.82 -4.5,28.88l-5.03 31.82c-0.14,0.9 -0.79,1.56 -1.62,1.78 -6.17,1.68 -9.92,2.65 -13.5,3.58 -7.72,1.99 -14.7,3.8 -48,13.37 -0.17,0.05 -0.35,0.08 -0.53,0.09l0 0c-9.11,0.41 -16.24,-6.45 -19.68,-14.62 -1.19,-2.84 -1.94,-5.86 -2.16,-8.79 -0.23,-3 0.08,-5.91 1.03,-8.46 1.57,-4.26 4.77,-7.5 9.94,-8.57 -4.78,-7.39 -6.25,-14.96 -5.28,-21.75 0.74,-5.12 2.85,-9.79 5.97,-13.6 3.12,-3.81 7.25,-6.79 12.01,-8.54 6.62,-2.43 14.44,-2.49 22.45,0.86 2.02,-5.94 6.1,-9.97 11.1,-12.31l0.12 -0.06c3.97,-1.83 8.5,-2.59 13.01,-2.41l0 -0.01c4.53,0.18 9.06,1.33 12.98,3.3 6.04,3.05 10.64,8.07 11.71,14.62 0.04,0.28 0.03,0.56 -0.02,0.82zm-9.11 27.91c2.4,-15.11 2.56,-16.12 4.46,-28.56 -0.89,-4.68 -4.39,-8.35 -8.97,-10.65 -3.29,-1.66 -7.12,-2.62 -10.99,-2.78l0 0 -0.01 0c-3.79,-0.16 -7.6,0.48 -10.91,2.01l-0.11 0.06c-4.53,2.13 -8.12,6 -9.42,11.89l0 0.02c-0.04,0.16 -0.09,0.32 -0.16,0.47 -0.54,1.14 -1.93,1.58 -3.11,0.98 -7.57,-3.84 -15.02,-4.03 -21.19,-1.77 -4.02,1.47 -7.51,3.99 -10.15,7.22 -2.64,3.22 -4.42,7.14 -5.04,11.43 -0.94,6.6 0.9,14.14 6.67,21.4l0 0.01c0.32,0.39 0.51,0.88 0.54,1.41 0.05,1.29 -0.95,2.32 -2.24,2.31 -5.4,-0.04 -8.54,2.5 -9.87,6.1 -0.71,1.93 -0.95,4.18 -0.77,6.53 0.19,2.41 0.81,4.91 1.81,7.3 2.68,6.37 8.03,11.73 14.7,11.57 32.76,-9.42 39.92,-11.27 47.83,-13.32 3.21,-0.83 6.56,-1.69 12.12,-3.2l4.81 -30.43z"/>
  <path class="fil2" d="M1216.58 315.63c11.83,5.97 20.97,-3.29 52.47,11.97 2.08,-12.97 -0.74,-31.25 15.9,-45.32 0.17,22.72 44.82,55.73 6.24,97.42 -38.8,41.29 -72.73,2.88 -97.35,5.94 10.86,-25.68 32.26,-18.82 43.07,-22.18 -15.3,-20.81 -13.31,-35.81 -20.33,-47.83z"/>
  <path class="fil5" d="M1217.56 313.55c4.05,2.05 7.95,2.09 12.82,2.14 8.1,0.08 18.65,0.19 36.75,8.48 0.2,-1.81 0.34,-3.73 0.48,-5.7 0.9,-12.08 1.95,-26.31 15.78,-38 0.96,-0.81 2.43,-0.66 3.3,0.34 0.39,0.46 0.59,1.02 0.59,1.57l0.01 0c0.05,6.4 4.17,14.1 8.76,22.7 11.05,20.67 24.7,46.2 -3.11,76.25l-0.06 0.06c-27.44,29.15 -52.39,19.99 -73.55,12.21l-0.12 -0.04c-9.25,-3.4 -17.73,-6.51 -24.97,-5.61 -1.27,0.16 -2.48,-0.75 -2.7,-2.02 -0.08,-0.46 -0.02,-0.9 0.14,-1.29l-0.01 0c8.7,-20.58 23.63,-21.51 35.34,-22.25 2.15,-0.13 4.19,-0.26 6,-0.51 -8.09,-11.9 -10.78,-21.84 -13.09,-30.42 -1.49,-5.5 -2.82,-10.42 -5.34,-14.73 -0.66,-1.14 -0.3,-2.55 0.8,-3.16 0.68,-0.37 1.5,-0.35 2.17,-0.01l0.01 -0.01zm13.01 6.8c-3.46,-0.03 -6.49,-0.06 -9.51,-0.71 1.36,3.4 2.33,6.97 3.37,10.82 2.39,8.86 5.19,19.23 14.34,31.67l0 0c0.14,0.19 0.26,0.41 0.34,0.64 0.44,1.24 -0.18,2.54 -1.4,2.92 -2.92,0.91 -6.37,1.12 -10.16,1.36 -9.78,0.61 -22.07,1.38 -29.89,16.1 7.16,0.25 14.77,3.03 22.95,6.04l0.13 0.04c19.85,7.29 43.26,15.9 68.69,-11.15l0.01 -0.01c25.64,-27.71 12.86,-51.61 2.52,-70.96 -3.84,-7.17 -7.36,-13.76 -8.73,-19.91 -9.33,9.93 -10.21,21.71 -10.96,31.86 -0.23,3.13 -0.45,6.12 -0.9,8.96 -0.03,0.21 -0.09,0.42 -0.18,0.62 -0.51,1.15 -1.89,1.62 -3.07,1.04 -18.88,-9.14 -29.5,-9.24 -37.55,-9.33z"/>
  <path class="fil4" d="M1363.12 396.36c-10.93,17.4 -6.88,10.94 -34.04,53.7 -22.26,-2.95 -14.58,-2.46 -67.71,-8.79 -19.36,-6.95 -13.71,-46.02 8.29,-36.84 -9.87,-32.86 27.73,-50.44 49,-26.4 14.45,-20 49.02,-0.59 44.46,18.33z"/>
  <path class="fil5" d="M1365.11 397.67c-7.99,12.72 -8.48,13.49 -16.04,25.39l-18.01 28.33c-0.49,0.76 -1.38,1.11 -2.24,0.97 -6.69,-0.88 -10.83,-1.48 -14.78,-2.06 -8.51,-1.23 -16.23,-2.36 -52.83,-6.72 -0.25,-0.03 -0.49,-0.1 -0.71,-0.2 -8.91,-3.3 -13.11,-12.42 -13.26,-21.36 -0.05,-3.15 0.41,-6.3 1.34,-9.16 0.94,-2.92 2.39,-5.54 4.31,-7.6 3.29,-3.52 7.85,-5.38 13.54,-4.23 -1.72,-8.62 -0.29,-16.15 3.13,-22.11 2.67,-4.64 6.56,-8.31 11.12,-10.77 4.57,-2.47 9.82,-3.74 15.22,-3.59 7.75,0.2 15.79,3.3 22.54,9.94 4.41,-4.86 10.11,-7.03 16.04,-7.22 4.81,-0.15 9.75,1.03 14.23,3.13 4.47,2.09 8.51,5.12 11.53,8.69 4.4,5.2 6.68,11.55 5.14,17.92 -0.06,0.24 -0.15,0.46 -0.27,0.65l0 0zm-20.02 22.73c8.56,-13.45 9.16,-14.4 15.84,-25.04 0.98,-4.65 -0.82,-9.38 -4.18,-13.35 -2.56,-3.03 -6.02,-5.62 -9.85,-7.41 -3.82,-1.8 -8.01,-2.8 -12.04,-2.67 -5.37,0.17 -10.53,2.38 -14.23,7.45 -0.11,0.16 -0.23,0.31 -0.38,0.44 -0.95,0.82 -2.42,0.7 -3.3,-0.29 -6.13,-6.93 -13.7,-10.13 -20.93,-10.32 -4.6,-0.12 -9.06,0.96 -12.95,3.06 -3.88,2.09 -7.18,5.2 -9.44,9.13 -3.35,5.83 -4.43,13.52 -1.74,22.47l0 0c0.14,0.48 0.14,0.99 -0.05,1.48 -0.44,1.18 -1.78,1.73 -2.99,1.23 -5.46,-2.28 -9.68,-1.06 -12.48,1.95 -1.48,1.58 -2.61,3.65 -3.36,5.97 -0.77,2.37 -1.15,5.01 -1.11,7.67 0.13,7.1 3.26,14.28 9.89,16.82 36.38,4.33 44.14,5.46 52.69,6.71 3.5,0.5 7.13,1.03 13.35,1.86l17.26 -27.16z"/>
  <path class="fil2" d="M1294.37 388.91c9.02,10.17 21.48,5.22 45.79,31.69 7.12,-11.15 11.62,-29.12 33.19,-35.56 -8.8,21.04 21.17,69.06 -32.42,92.35 -53.65,22.83 -71.17,-25.96 -96.09,-32.83 20.59,-19.42 38.49,-4.67 50.23,-3.52 -6.53,-25.22 1.3,-38.28 -0.7,-52.13z"/>
  <path class="fil5" d="M1296.07 387.41c3.11,3.5 6.86,5.08 11.54,7.04 7.77,3.26 17.89,7.52 32.07,22.32 0.91,-1.61 1.81,-3.34 2.74,-5.13 5.63,-10.79 12.25,-23.49 30.16,-28.83 1.21,-0.36 2.54,0.34 2.97,1.57 0.21,0.6 0.16,1.22 -0.08,1.74 -2.43,5.92 -1.51,14.62 -0.48,24.33 2.48,23.41 5.55,52.31 -33.04,69.08l-0.12 0.05c-37.87,16.06 -58.26,-2.2 -75.55,-17.69 -7.6,-6.81 -14.57,-13.05 -21.95,-15.09 -1.26,-0.34 -2.04,-1.63 -1.76,-2.87 0.11,-0.47 0.35,-0.86 0.69,-1.15 16.45,-15.47 31.15,-10.48 42.69,-6.55 2.16,0.73 4.2,1.43 6.06,1.91 -3.12,-14.21 -1.78,-24.46 -0.62,-33.31 0.73,-5.64 1.39,-10.7 0.67,-15.7 -0.19,-1.28 0.69,-2.42 1.97,-2.54 0.78,-0.07 1.54,0.26 2.04,0.82l0 0zm9.92 11.31c-3.35,-1.41 -6.28,-2.63 -8.95,-4.46 -0.03,3.7 -0.51,7.42 -1.03,11.41 -1.19,9.13 -2.59,19.82 1.31,34.9l0 0c0.06,0.23 0.09,0.46 0.08,0.7 -0.07,1.28 -1.15,2.21 -2.44,2.09 -3.17,-0.31 -6.57,-1.47 -10.31,-2.74 -9.69,-3.3 -21.86,-7.43 -35.26,3.16 6.86,3.04 13.15,8.67 19.91,14.72 16.24,14.55 35.38,31.71 70.55,16.78l0.05 -0.03c35.66,-15.49 32.79,-42.6 30.46,-64.55 -0.87,-8.16 -1.67,-15.65 -0.53,-21.89 -12.99,5.49 -18.5,16.05 -23.24,25.15 -1.47,2.82 -2.88,5.52 -4.44,7.97l0 0c-0.1,0.15 -0.22,0.29 -0.36,0.42 -0.93,0.85 -2.41,0.75 -3.3,-0.22 -14.59,-15.88 -24.78,-20.16 -32.5,-23.41z"/>
  <path class="fil4" d="M1418.89 501.01c-12.99,16.11 -8.18,10.12 -40.41,49.68 -22.1,-5.46 -14.42,-4.1 -67.27,-16.42 -18.73,-9.12 -8.61,-47.42 12.53,-35.78 -6.22,-33.87 33.68,-47.15 52.4,-20.78 16.83,-18.3 49.49,4.96 42.75,23.3z"/>
  <g>
   <path class="fil5" d="M1420.66 502.64c-9.78,12.13 -10.37,12.85 -18.97,23.4 -4.52,5.54 -11.05,13.54 -21.36,26.19 -0.6,0.74 -1.59,0.98 -2.48,0.69 -6.87,-1.7 -10.8,-2.72 -14.56,-3.7 -8.5,-2.21 -16.21,-4.21 -52.5,-12.67 -0.18,-0.04 -0.35,-0.1 -0.52,-0.18l0 0c-8.69,-4.23 -11.95,-13.78 -11.14,-22.73 0.29,-3.17 1.09,-6.26 2.33,-9 1.27,-2.81 3.01,-5.28 5.16,-7.13 3.73,-3.21 8.59,-4.59 14.25,-2.77 -0.74,-8.69 1.49,-15.97 5.52,-21.5 3.2,-4.38 7.53,-7.64 12.43,-9.61 4.88,-1.97 10.34,-2.67 15.79,-1.93 7.82,1.05 15.63,5.06 21.71,12.48 5.05,-4.39 11.1,-5.91 17.14,-5.38 4.89,0.42 9.76,2.19 14.04,4.82 4.26,2.63 7.98,6.15 10.59,10.09 3.74,5.63 5.25,12.12 3.01,18.21 -0.1,0.28 -0.25,0.52 -0.44,0.72zm-22.68 20.3c10.5,-12.86 11.23,-13.76 18.81,-23.15 1.5,-4.47 0.28,-9.33 -2.57,-13.62 -2.21,-3.33 -5.39,-6.32 -9.06,-8.59 -3.65,-2.25 -7.77,-3.75 -11.86,-4.1 -5.48,-0.48 -10.98,1.12 -15.31,5.78 -0.13,0.15 -0.28,0.3 -0.46,0.41 -1.04,0.72 -2.52,0.42 -3.29,-0.66 -5.42,-7.64 -12.72,-11.68 -20.02,-12.66 -4.63,-0.63 -9.28,-0.03 -13.44,1.65 -4.16,1.68 -7.84,4.44 -10.54,8.14 -3.96,5.42 -5.86,12.9 -4.18,22.04l-0.01 0c0.09,0.49 0.03,1.01 -0.21,1.47 -0.58,1.12 -2,1.52 -3.16,0.88 -5.28,-2.91 -9.7,-2.12 -12.88,0.61 -1.65,1.43 -3.02,3.38 -4.03,5.62 -1.04,2.3 -1.71,4.89 -1.95,7.54 -0.64,7.05 1.72,14.5 8.11,17.75 36.24,8.45 43.89,10.44 52.33,12.63 3.58,0.94 7.31,1.91 13.25,3.38 9.8,-12.03 16.08,-19.73 20.47,-25.12zm22.68 -20.3c-0.62,0.68 -1.63,0.92 -2.57,0.54l2.57 -0.54z"/>
  </g>
  <path class="fil2" d="M1350.66 486.94c8.16,11.44 21.62,7.83 43.7,37.73 8.66,-10.58 15.4,-28.44 38.47,-32.52 -11.55,20.49 13.88,73.09 -44.29,90.69 -58.16,17.12 -70.61,-34.81 -95.59,-44.72 23.56,-17.48 40.37,-0.31 52.38,2.23 -3.82,-26.56 5.8,-39.01 5.33,-53.41z"/>
  <g>
   <path class="fil5" d="M1352.55 485.64c2.8,3.93 6.52,5.99 11.15,8.55 7.66,4.24 17.64,9.77 30.61,26.6 1.16,-1.58 2.3,-3.25 3.48,-4.99 7.08,-10.38 15.4,-22.59 34.52,-25.97 1.26,-0.22 2.53,0.63 2.82,1.91 0.13,0.59 0.03,1.17 -0.23,1.64 -3.27,5.8 -3.33,14.85 -3.39,24.94 -0.15,24.21 -0.34,54.1 -42.18,66.77l-0.02 0 -0.01 0.01 -0.04 0.01c-41.06,12.06 -60.02,-8.97 -76.1,-26.81 -7.09,-7.86 -13.58,-15.07 -20.99,-18.01 -1.22,-0.49 -1.87,-1.86 -1.44,-3.06 0.15,-0.42 0.42,-0.77 0.75,-1.02l0 0c18.83,-13.97 33.47,-7.15 44.95,-1.8 2.18,1.01 4.23,1.97 6.13,2.68 -1.59,-14.9 0.99,-25.25 3.22,-34.19 1.43,-5.69 2.7,-10.79 2.53,-16.01 -0.04,-1.3 0.98,-2.33 2.28,-2.3 0.8,0.02 1.52,0.43 1.96,1.05l0 0zm9.01 12.63c-3.33,-1.84 -6.23,-3.45 -8.81,-5.66 -0.45,3.81 -1.39,7.58 -2.4,11.64 -2.29,9.2 -4.98,19.96 -2.69,35.88l0 0c0.03,0.23 0.03,0.47 -0.01,0.71 -0.21,1.27 -1.42,2.08 -2.7,1.8 -3.24,-0.68 -6.62,-2.26 -10.34,-3.99 -9.67,-4.51 -21.83,-10.17 -36.98,-0.81 6.77,3.9 12.64,10.41 18.95,17.41 15.14,16.79 32.98,36.59 71.19,25.34 38.73,-11.73 38.9,-39.81 39.04,-62.54 0.05,-8.49 0.11,-16.29 2.02,-22.54 -14.16,4.08 -21.12,14.28 -27.11,23.07 -1.86,2.75 -3.65,5.36 -5.5,7.63l-0.01 0c-0.12,0.15 -0.26,0.28 -0.42,0.39 -1.03,0.74 -2.51,0.47 -3.3,-0.6 -13.25,-17.94 -23.3,-23.51 -30.93,-27.73zm26.21 82.32l0 0 0 0z"/>
  </g>
  <path class="fil4" d="M1436.2 639.95c-19.43,8.25 -12.22,5.18 -60.25,25.29 -18,-14.91 -11.49,-10.2 -54.86,-45.21 -13.2,-16.59 13.74,-45.7 28.01,-25.79 9.76,-32.68 52.85,-26.14 58.12,5.65 24.01,-8.43 43.64,26.99 28.98,40.06z"/>
  <path class="fil5" d="M1437.06 642.15c-13.63,5.79 -14.52,6.16 -28.42,11.97l-31.69 13.27c-0.82,0.34 -1.76,0.16 -2.43,-0.4l0 0.01c-5.46,-4.52 -8.77,-7.33 -11.95,-10.03 -6.88,-5.85 -13.13,-11.14 -42.89,-35.16 -0.18,-0.15 -0.33,-0.31 -0.46,-0.49 -5.82,-7.42 -4.73,-16.87 -0.27,-24.23 1.63,-2.7 3.72,-5.13 6.07,-7.06l0.01 0c2.4,-1.97 5.1,-3.45 7.91,-4.22 5.16,-1.41 10.6,-0.52 15.25,3.92 3.17,-7.76 8.33,-13.08 14.35,-16.15 5.04,-2.58 10.68,-3.57 16.26,-3.11 5.57,0.45 11.08,2.37 15.9,5.6 6.71,4.51 12.05,11.58 14.27,20.86 7.08,-1.68 13.73,0.02 19.29,3.64 4.23,2.76 7.8,6.64 10.43,10.98 2.63,4.34 4.32,9.17 4.76,13.8 0.6,6.29 -1.04,12.26 -5.65,16.36 -0.22,0.2 -0.47,0.35 -0.74,0.44zm-30.41 7.69c14.79,-6.19 15.8,-6.61 28.19,-11.87 3.28,-3.09 4.44,-7.61 3.98,-12.41 -0.38,-3.94 -1.82,-8.05 -4.07,-11.76 -2.25,-3.73 -5.3,-7.04 -8.89,-9.38 -5.06,-3.3 -11.23,-4.63 -17.77,-2.34l0 0c-0.15,0.05 -0.31,0.09 -0.48,0.11 -1.26,0.15 -2.46,-0.77 -2.67,-2.04 -1.53,-9.16 -6.42,-16.05 -12.71,-20.27 -4.11,-2.77 -8.83,-4.4 -13.59,-4.8 -4.74,-0.39 -9.54,0.46 -13.82,2.65 -5.94,3.03 -10.93,8.7 -13.49,17.28l0 0c-0.14,0.46 -0.42,0.87 -0.84,1.16 -1.03,0.71 -2.49,0.42 -3.25,-0.64 -3.74,-5.22 -8.46,-6.45 -12.85,-5.25 -2.2,0.6 -4.36,1.8 -6.31,3.39 -1.99,1.64 -3.75,3.68 -5.13,5.96 -3.54,5.84 -4.54,13.2 -0.24,18.81 29.8,24.05 35.97,29.29 42.77,35.06 2.81,2.39 5.74,4.87 10.78,9.06l30.39 -12.72z"/>
  <path class="fil2" d="M1379.36 596.37c2.33,13.81 16.47,16.78 23.25,53.21 12.87,-5.36 27.32,-18.01 50.58,-11.06 -20.1,12.77 -20.62,70.73 -82.64,59.65 -61.79,-11.5 -49.54,-62.94 -68.17,-83.09 29.86,-4.63 37.59,18.18 47.56,25.9 8.63,-25.14 23.26,-31.71 29.42,-44.61z"/>
  <g>
   <path class="fil5" d="M1381.66 596.14c0.81,4.74 3.3,8.24 6.41,12.61 5.17,7.24 11.91,16.69 16.22,37.48 1.82,-0.86 3.67,-1.83 5.59,-2.83 11.31,-5.91 24.61,-12.86 43.88,-7.1 1.24,0.37 2,1.67 1.69,2.89 -0.15,0.59 -0.52,1.06 -1,1.34 -5.67,3.64 -9.86,11.57 -14.53,20.42 -11.23,21.23 -25.09,47.46 -69.66,39.5l-0.02 0 0 0c-43.61,-8.12 -51.56,-35.31 -58.3,-58.37 -2.97,-10.17 -5.7,-19.5 -11.23,-25.48 -0.89,-0.96 -0.86,-2.43 0.06,-3.27 0.34,-0.31 0.76,-0.5 1.19,-0.55 23.8,-3.67 34.22,9 42.4,18.94 1.58,1.92 3.07,3.73 4.53,5.25 5.36,-13.91 12.52,-21.87 18.69,-28.73 3.93,-4.37 7.45,-8.28 9.68,-12.96 0.54,-1.12 1.92,-1.56 3.08,-0.96 0.73,0.38 1.2,1.08 1.32,1.82zm2.69 15.18c-2.28,-3.19 -4.25,-5.96 -5.63,-9.13 -2.18,3.19 -4.8,6.11 -7.63,9.26 -6.34,7.04 -13.75,15.28 -18.92,30.31 -0.07,0.24 -0.19,0.47 -0.35,0.68 -0.75,1 -2.21,1.15 -3.24,0.35 -2.68,-2.08 -5.1,-5.01 -7.75,-8.23 -6.93,-8.43 -15.65,-19.02 -34.09,-17.64 4.53,6.53 7,14.97 9.65,24.06 6.35,21.73 13.84,47.35 54.47,54.91l0 0c41.33,7.37 54.38,-17.3 64.94,-37.28 3.96,-7.5 7.59,-14.37 12.27,-19 -15.09,-2.93 -26.25,2.9 -35.87,7.92 -2.98,1.56 -5.82,3.04 -8.6,4.2l0 0c-0.18,0.07 -0.37,0.12 -0.56,0.15 -1.26,0.17 -2.48,-0.72 -2.71,-1.99 -4.07,-21.88 -10.85,-31.37 -15.98,-38.57zm70.1 29.21c-0.52,0.31 -1.17,0.4 -1.82,0.21l1.82 -0.21z"/>
  </g>
  <path class="fil4" d="M1413.09 768.58c-22,1.12 -13.84,0.69 -68.14,3.19 -12.57,-20.4 -7.79,-13.67 -38.39,-61.95 -7.25,-20.33 29.4,-38.67 36.56,-14.81 20.95,-27.68 61.15,-6.56 55.32,25.48 26.58,0.29 33.64,40.74 14.65,48.09z"/>
  <path class="fil5" d="M1413.32 770.78c-14.89,0.76 -15.9,0.8 -32.25,1.54l-35.91 1.65c-0.89,0.03 -1.72,-0.47 -2.13,-1.22 -3.81,-6.18 -6.07,-9.95 -8.23,-13.56 -4.69,-7.82 -8.94,-14.91 -30.08,-48.26 -0.13,-0.2 -0.22,-0.4 -0.28,-0.61 -3.05,-8.78 1.02,-17.13 7.66,-22.55 2.49,-2.04 5.35,-3.67 8.33,-4.75 3.03,-1.09 6.19,-1.63 9.21,-1.47 5.77,0.32 11.03,3.07 14.11,9.17 5.84,-6.38 12.8,-9.68 19.84,-10.52 5.95,-0.71 11.93,0.35 17.31,2.81 5.38,2.45 10.17,6.3 13.74,11.19 4.78,6.53 7.39,14.9 6.34,24.24 7.89,0.84 14.04,5.02 18.28,10.7 3.04,4.07 5.08,8.91 6.06,13.84 0.99,4.93 0.92,9.96 -0.26,14.41 -1.6,6.02 -5.24,10.98 -11.08,13.24 -0.22,0.09 -0.44,0.13 -0.66,0.14l0 0.01zm-32.67 -2.85c16.03,-0.73 17.13,-0.78 31.89,-1.53 4.29,-1.8 7.02,-5.66 8.27,-10.35 1.01,-3.8 1.06,-8.14 0.2,-12.42 -0.85,-4.28 -2.62,-8.47 -5.23,-11.98 -3.89,-5.2 -9.7,-8.88 -17.25,-8.97l0 0c-0.16,0 -0.32,-0.02 -0.48,-0.06 -1.2,-0.27 -1.99,-1.46 -1.77,-2.64 1.64,-9.04 -0.64,-17.13 -5.15,-23.3 -3.09,-4.23 -7.24,-7.57 -11.89,-9.69 -4.64,-2.12 -9.79,-3.03 -14.9,-2.42 -6.95,0.82 -13.87,4.49 -19.41,11.78 -0.27,0.38 -0.67,0.67 -1.17,0.79 -1.16,0.3 -2.4,-0.42 -2.75,-1.6 -1.95,-6.5 -6.41,-9.32 -11.39,-9.59 -2.43,-0.13 -5.01,0.31 -7.5,1.21 -2.53,0.92 -4.99,2.32 -7.13,4.07 -5.35,4.38 -8.71,10.95 -6.44,17.7 20.89,32.97 25.22,40.18 29.99,48.14 1.97,3.29 4.02,6.71 7.54,12.43l34.57 -1.57z"/>
  <path class="fil2" d="M1372.2 707.5c-2.5,13.93 10.41,21.64 4.45,58.61 14.55,-0.64 33.17,-7.67 53.69,6.99 -24.24,5.18 -44.86,60.07 -102.14,28.08 -56.91,-32.31 -26.99,-76.95 -38.35,-102.54 31.03,5.94 30.73,30.28 37.88,41.07 17.23,-20.91 33.92,-22.08 44.47,-32.21z"/>
  <g>
   <path class="fil5" d="M1374.37 708c-0.87,4.86 0.38,9.07 1.94,14.32 2.59,8.69 5.96,20.03 2.94,41.4 2.15,-0.19 4.41,-0.49 6.74,-0.79 13.16,-1.69 28.65,-3.68 45.57,8.41 1.01,0.72 1.28,2.1 0.61,3.07 -0.31,0.45 -0.76,0.73 -1.26,0.84l0 0c-6.91,1.47 -13.83,7.59 -21.55,14.42l-0.02 0.01c-18.38,16.27 -41.1,36.33 -82.14,13.41l-0.09 -0.06c-39.98,-22.74 -38.38,-51.24 -37.03,-75.41 0.6,-10.72 1.15,-20.55 -2.23,-28.18 -0.5,-1.13 -0.01,-2.4 1.09,-2.85 0.39,-0.15 0.82,-0.18 1.21,-0.11l0.01 -0.01c24.65,4.72 30.51,20.32 35.11,32.57 0.93,2.48 1.81,4.82 2.78,6.82 10.15,-11.48 20,-16.59 28.5,-20.99 5.41,-2.8 10.26,-5.31 14.09,-8.99 0.85,-0.82 2.25,-0.76 3.11,0.14 0.53,0.55 0.74,1.3 0.62,1.98l0 0zm-2.27 15.38c-1.16,-3.93 -2.17,-7.33 -2.39,-10.91 -3.31,2.36 -6.99,4.27 -10.97,6.33 -8.72,4.51 -18.93,9.8 -29.27,22.36l-0.01 0c-0.13,0.16 -0.29,0.31 -0.48,0.42 -1,0.64 -2.37,0.32 -3.06,-0.72 -1.92,-2.89 -3.27,-6.5 -4.76,-10.47 -3.95,-10.5 -8.91,-23.71 -27.92,-28.75 2.29,7.82 1.79,16.79 1.24,26.45 -1.28,22.88 -2.79,49.86 34.67,71.16l0.06 0.03c38.26,21.37 59.72,2.43 77.09,-12.93l0.04 -0.04c6.61,-5.84 12.67,-11.2 18.98,-13.92 -14.03,-8.26 -27.2,-6.56 -38.54,-5.1 -3.41,0.44 -6.66,0.86 -9.79,1 -0.22,0.02 -0.45,0.01 -0.68,-0.03 -1.2,-0.25 -2.02,-1.42 -1.83,-2.61 3.58,-22.24 0.2,-33.63 -2.38,-42.27zm-44.99 79.65c-1.02,-0.63 -1.41,-1.93 -0.87,-2.95l0.87 2.95z"/>
  </g>
  <path class="fil4" d="M1341.79 887c-23.02,-6.76 -14.48,-4.26 -71.18,-21.21 -5.6,-24.71 -3.1,-16.33 -17.24,-75.13 -0.16,-22.75 44.08,-27.82 42.88,-1.61 31.46,-19.95 65.19,15.37 47.72,45.04 27.21,9.8 19.96,52.42 -2.18,52.91z"/>
  <path class="fil5" d="M1341.14 889.23c-16.31,-4.79 -17.32,-5.09 -33.67,-9.99 -7.95,-2.38 -19.39,-5.8 -37.43,-11.19 -0.91,-0.28 -1.56,-1.04 -1.74,-1.9 -1.67,-7.34 -2.66,-11.99 -3.61,-16.44 -2.01,-9.43 -3.84,-17.95 -13.62,-58.61 -0.05,-0.22 -0.07,-0.44 -0.06,-0.66 -0.01,-9.74 7.05,-16.54 15.73,-19.58 3.29,-1.16 6.83,-1.78 10.3,-1.81 3.5,-0.02 6.96,0.55 10.04,1.78 5.89,2.36 10.37,7 11.35,14.2 8.51,-4.35 17.08,-5.06 24.76,-3.2 6.37,1.54 12.13,4.86 16.73,9.36 4.6,4.48 8.06,10.14 9.84,16.37 2.27,7.97 1.83,16.86 -2.44,25.41 7.92,3.71 12.76,10.18 15.04,17.46 1.58,5.03 1.91,10.45 1.17,15.57 -0.73,5.13 -2.55,10 -5.26,13.94 -3.81,5.54 -9.4,9.26 -16.31,9.42 -0.28,0 -0.56,-0.04 -0.82,-0.13zm-32.53 -14.5c17.52,5.25 18.72,5.61 33.35,9.91 5.16,-0.24 9.41,-3.18 12.38,-7.5 2.33,-3.38 3.89,-7.59 4.53,-12.04 0.64,-4.46 0.36,-9.15 -1,-13.48 -2.08,-6.62 -6.71,-12.43 -14.45,-15.27 -0.21,-0.06 -0.42,-0.16 -0.62,-0.28 -1.13,-0.7 -1.53,-2.16 -0.88,-3.25 4.77,-8.11 5.45,-16.64 3.3,-24.19 -1.54,-5.39 -4.53,-10.29 -8.5,-14.16 -3.97,-3.88 -8.93,-6.74 -14.42,-8.07 -7.57,-1.83 -16.18,-0.74 -24.66,4.61 -0.41,0.29 -0.94,0.43 -1.5,0.38 -1.3,-0.12 -2.3,-1.28 -2.25,-2.57 0.33,-7.18 -3.3,-11.6 -8.37,-13.63 -2.47,-0.98 -5.3,-1.45 -8.21,-1.43 -2.95,0.03 -5.98,0.56 -8.81,1.55 -6.99,2.45 -12.69,7.75 -12.78,15.19 9.66,40.13 11.52,48.83 13.57,58.44 0.83,3.89 1.69,7.92 3.29,15.02 17.24,5.15 28.29,8.46 36.03,10.77z"/>
  <path class="fil2" d="M1321.66 811.84c-7.57,12.91 2.94,25.17 -16.44,59.68 15.18,4.57 36.84,4.26 52.67,26.13 -26.77,-3.54 -67.65,43.5 -115.04,-8.69 -46.9,-52.38 -0.15,-85.93 -2.65,-115.36 29.76,16.98 20.73,41 24.21,54.26 25.2,-14.57 42.77,-9.76 57.25,-16.02z"/>
  <path class="fil5" d="M1323.71 813.11c-2.64,4.5 -2.86,9.12 -3.14,14.89 -0.46,9.54 -1.06,21.99 -11.82,42.08 2.27,0.57 4.7,1.1 7.21,1.63 14.13,3.03 30.75,6.59 43.81,24.62 0.78,1.08 0.58,2.54 -0.46,3.27 -0.48,0.33 -1.05,0.45 -1.61,0.38l0 0.01c-7.64,-1.01 -16.94,2.58 -27.32,6.58 -24.73,9.55 -55.27,21.33 -89.24,-16.07l-0.01 -0.02 0 0.01c-33.02,-36.88 -21.15,-64.58 -11.08,-88.08l0.04 -0.09c4.44,-10.37 8.5,-19.87 7.76,-28.64 -0.11,-1.3 0.85,-2.39 2.15,-2.44 0.53,-0.02 1.03,0.14 1.45,0.42 23.48,13.49 23.92,30.99 24.25,44.74 0.07,2.8 0.14,5.43 0.41,7.76 14.56,-7.76 26.51,-9.3 36.83,-10.62 6.56,-0.84 12.43,-1.6 17.69,-3.88 1.17,-0.5 2.59,0.06 3.15,1.26 0.35,0.74 0.3,1.55 -0.07,2.18l0 0.01zm-7.84 14.42c0.2,-4.3 0.39,-8.03 1.45,-11.67 -4.26,1.16 -8.73,1.74 -13.55,2.36 -10.58,1.36 -22.97,2.95 -38.1,11.7l0 -0.01c-0.2,0.12 -0.42,0.2 -0.65,0.25 -1.26,0.27 -2.55,-0.54 -2.89,-1.81 -0.93,-3.55 -1.03,-7.61 -1.14,-12.08 -0.29,-11.82 -0.66,-26.7 -18.38,-38.49 -0.45,8.53 -4.16,17.22 -8.17,26.57l-0.04 0.1c-9.53,22.23 -20.76,48.45 10.17,82.99 31.69,34.89 60.55,23.75 83.92,14.73 8.89,-3.43 17.04,-6.57 24.5,-7.02 -11.46,-13.19 -25.61,-16.23 -37.79,-18.83 -3.62,-0.78 -7.08,-1.52 -10.38,-2.5 -0.25,-0.06 -0.5,-0.16 -0.74,-0.3 -1.14,-0.68 -1.56,-2.13 -0.93,-3.24 11.66,-20.77 12.26,-33.27 12.72,-42.75z"/>
  <path class="fil4" d="M1248.2 984.34c-24.78,-9.74 -15.58,-6.14 -76.6,-30.43 -3.7,-27.65 -1.77,-18.22 -11.47,-84.08 2.12,-24.96 51.58,-26.05 47.6,2.55 36.82,-18.69 70.57,23.42 48.24,54.18 29.11,13.48 16.78,59.46 -7.77,57.78z"/>
  <path class="fil5" d="M1247.44 986.5c-16.42,-6.45 -17.54,-6.9 -36.38,-14.41 -8.55,-3.4 -20.85,-8.31 -40.23,-16.02 -0.9,-0.36 -1.48,-1.2 -1.55,-2.09 -1.19,-8.88 -1.78,-13.71 -2.34,-18.34 -1.29,-10.67 -2.46,-20.34 -9.12,-65.59 -0.04,-0.24 -0.04,-0.47 0,-0.69 0.97,-10.54 9.39,-17.2 19.2,-19.63 3.74,-0.93 7.7,-1.24 11.5,-0.92 3.86,0.32 7.6,1.3 10.84,2.95 6.26,3.18 10.71,8.76 10.93,16.84 10.01,-4.07 19.72,-3.98 28.14,-1.07 6.82,2.36 12.78,6.58 17.35,11.95 4.57,5.37 7.75,11.89 9.04,18.85 1.65,8.92 0.2,18.55 -5.42,27.42 8.47,4.81 13.2,12.39 15,20.6 1.22,5.6 1.05,11.5 -0.26,16.99 -1.3,5.49 -3.75,10.59 -7.09,14.6 -4.73,5.7 -11.26,9.24 -18.89,8.72 -0.25,-0.02 -0.49,-0.08 -0.72,-0.17l0 0.01zm-34.84 -18.72c17.78,7.08 18.95,7.55 36.01,14.25 5.88,0.27 10.99,-2.61 14.79,-7.18 2.91,-3.5 5.05,-7.98 6.2,-12.81 1.15,-4.84 1.3,-10.02 0.23,-14.92 -1.66,-7.59 -6.29,-14.53 -14.76,-18.45l0.01 0c-0.16,-0.08 -0.31,-0.17 -0.45,-0.27 -1.06,-0.79 -1.32,-2.26 -0.58,-3.27 6.1,-8.4 7.76,-17.68 6.18,-26.17 -1.13,-6.12 -3.93,-11.85 -7.94,-16.57 -4,-4.7 -9.22,-8.4 -15.19,-10.46 -8.31,-2.88 -18.12,-2.59 -28.22,2.54l-0.01 0c-0.43,0.21 -0.93,0.3 -1.46,0.2 -1.27,-0.24 -2.17,-1.46 -1.99,-2.73 1.11,-7.96 -2.52,-13.25 -8.02,-16.05 -2.67,-1.36 -5.78,-2.17 -9.04,-2.44 -3.3,-0.28 -6.74,0 -9.99,0.8 -8.1,2.01 -15.05,7.33 -15.89,15.62 6.65,45.24 7.82,54.85 9.1,65.44 0.57,4.68 1.16,9.54 2.14,16.98l38.88 15.49z"/>
  <path class="fil2" d="M1233.54 899.92c-9.68,13.39 0.7,27.89 -24.23,63.75 16.34,6.55 40.33,8.39 55.63,33.96 -29.26,-6.58 -79.23,40.85 -126.39,-21.12 -46.59,-62.14 8.52,-94.2 8.73,-126.71 31.22,21.62 18.79,47.03 21.3,61.91 29.35,-13.42 48.31,-6.38 64.96,-11.79z"/>
  <path class="fil5" d="M1235.39 901.44c-3.35,4.68 -4.06,9.74 -4.95,16.04 -1.48,10.42 -3.41,24.04 -17.5,45.11 2.57,0.91 5.33,1.76 8.17,2.64 15.28,4.73 33.25,10.29 45.82,31.27 0.68,1.13 0.34,2.55 -0.76,3.17 -0.5,0.29 -1.08,0.35 -1.62,0.23 -8.41,-1.89 -19.1,1.12 -31.03,4.47 -28.24,7.94 -63.12,17.75 -96.79,-26.51l-0.01 -0.02 -0.01 0c-32.69,-43.6 -16.8,-72.68 -3.32,-97.35 6,-10.99 11.5,-21.06 11.57,-30.83 0,-1.28 1.05,-2.26 2.34,-2.19 0.46,0.03 0.89,0.19 1.25,0.44l0.01 -0.01c24.65,17.08 23.36,36.28 22.34,51.35l0.01 0c-0.22,3.24 -0.43,6.29 -0.33,8.99 17.02,-7.17 30.49,-7.65 42.09,-8.07l0.15 0c7.29,-0.26 13.82,-0.5 19.89,-2.47 1.21,-0.4 2.56,0.28 3.02,1.51 0.29,0.8 0.14,1.64 -0.34,2.23zm-9.59 15.15c0.69,-4.86 1.28,-9.05 2.97,-13.05 -4.9,0.9 -10.01,1.09 -15.53,1.29l-0.17 0.01c-11.86,0.42 -25.75,0.92 -43.43,9l0 0c-0.2,0.09 -0.43,0.16 -0.67,0.19 -1.27,0.14 -2.48,-0.77 -2.69,-2.05 -0.67,-3.97 -0.37,-8.41 -0.04,-13.28l0 0 0 -0.01c0.89,-13.14 2,-29.69 -16.92,-44.56 -1.26,9.45 -6.34,18.74 -11.81,28.76 -12.83,23.48 -27.95,51.16 2.88,92.28l0 0c31.64,41.58 64.8,32.25 91.65,24.7 10.38,-2.92 19.87,-5.58 28.27,-5.18 -11.43,-16.05 -26.99,-20.87 -40.37,-25.01 -4.01,-1.24 -7.85,-2.42 -11.4,-3.85 -0.18,-0.07 -0.36,-0.17 -0.53,-0.29 -1.06,-0.77 -1.35,-2.23 -0.64,-3.26 15.03,-21.62 16.97,-35.3 18.43,-45.69z"/>
  <path class="fil5" d="M310.98 1594.48l12.11 -5.65 17.57 37.49 -38.35 17.89c-8.06,-3.25 -14.85,-7.32 -20.43,-12.18 -5.55,-4.87 -9.83,-10.53 -12.83,-16.97 -4.06,-8.7 -5.59,-17.63 -4.54,-26.76 1.02,-9.14 4.82,-17.44 11.34,-24.9 6.54,-7.47 14.89,-13.58 25.05,-18.32 10.07,-4.69 20.3,-7.25 30.7,-7.71 10.42,-0.48 19.32,1.7 26.71,6.49 7.37,4.8 13.12,11.6 17.24,20.44 2.98,6.39 4.48,12.75 4.46,19.06 0.01,6.3 -1.47,11.93 -4.43,16.89 -2.96,4.97 -7.56,9.82 -13.79,14.61l-8.33 -8.99c4.64,-3.81 8.01,-7.39 10.11,-10.75 2.09,-3.38 3.18,-7.33 3.27,-11.85 0.11,-4.49 -0.89,-9 -2.96,-13.46 -2.5,-5.36 -5.63,-9.55 -9.35,-12.56 -3.73,-3.04 -7.7,-5 -11.93,-5.97 -4.22,-0.94 -8.48,-1.22 -12.84,-0.82 -7.43,0.73 -14.89,2.83 -22.38,6.32 -9.22,4.3 -16.29,9.25 -21.23,14.87 -4.94,5.62 -7.7,11.73 -8.28,18.33 -0.59,6.6 0.47,12.82 3.19,18.65 2.37,5.1 5.84,9.51 10.38,13.27 4.52,3.79 8.65,6.31 12.42,7.59l19.26 -8.98 -12.14 -26.03zm-12.98 73l99.79 -55.32 34.27 61.81 -11.78 6.53 -28 -50.5 -30.55 16.93 26.22 47.3 -11.71 6.49 -26.22 -47.29 -33.97 18.82 29.1 52.5 -11.78 6.53 -35.37 -63.8zm45.37 78.44l92.31 -67.07 11.45 15.76 -51.77 66.19c-4.82,6.15 -8.45,10.74 -10.92,13.71 4.01,-1.53 9.97,-3.73 17.87,-6.54l77.97 -27.73 10.23 14.09 -92.3 67.06 -7.34 -10.09 77.27 -56.13 -93.96 33.15 -6.86 -9.44 61.96 -79.96 -78.58 57.09 -7.33 -10.09zm61.23 84.1l109.06 -50.35 9.5 10.19 -56.16 107.08 -10.06 -10.79 17.5 -31.91 -27.87 -29.9 -32.59 15.74 -9.38 -10.06zm53.51 -11.34l22.61 24.26 16.14 -29.02c4.9,-8.8 9.09,-15.88 12.59,-21.2 -6.22,4.08 -12.72,7.75 -19.56,11.01l-31.78 14.95zm16.04 85.46l73.35 -87.41 9.92 8.33 -30.13 35.9 38.92 32.65 30.12 -35.9 9.92 8.33 -73.34 87.4 -9.92 -8.32 34.56 -41.19 -38.91 -32.66 -34.56 41.19 -9.93 -8.32zm107.64 84.09l53.57 -100.74 38.26 20.34c7.7,4.1 13.06,8.12 16.1,12.05 3.04,3.93 4.54,8.82 4.51,14.68 -0.05,5.87 -1.56,11.57 -4.5,17.1 -3.8,7.16 -8.97,12.11 -15.55,14.9 -6.57,2.8 -14.35,2.66 -23.35,-0.41 2.14,3.3 3.55,6.19 4.23,8.69 1.44,5.34 2.21,11.5 2.36,18.44l0.44 35.4 -14.37 -7.64 -0.27 -27.04c-0.13,-7.8 -0.41,-13.91 -0.89,-18.25 -0.44,-4.36 -1.17,-7.64 -2.21,-9.81 -1.02,-2.2 -2.27,-4.01 -3.77,-5.47 -1.14,-1 -3.16,-2.29 -6.12,-3.86l-13.24 -7.04 -23.79 44.73 -11.41 -6.07zm41.33 -50.2l24.56 13.06c5.21,2.77 9.64,4.31 13.25,4.6 3.63,0.31 6.93,-0.52 9.93,-2.48 3,-1.95 5.36,-4.55 7.09,-7.81 2.54,-4.76 3.15,-9.46 1.81,-14.11 -1.32,-4.65 -5.19,-8.66 -11.6,-12.07l-27.31 -14.52 -17.73 33.33zm48.61 94.77l44.59 -105.03 11.9 5.05 -44.58 105.03 -11.91 -5.05zm33.45 12.8l37.14 -107.89 34.87 12.01c6.13,2.11 10.7,4.08 13.7,5.87 4.23,2.44 7.46,5.43 9.69,8.98 2.2,3.51 3.48,7.86 3.82,12.95 0.33,5.11 -0.43,10.33 -2.27,15.68 -3.16,9.17 -8.34,16.1 -15.52,20.73 -7.19,4.6 -17.33,4.68 -30.39,0.18l-23.72 -8.16 -15.1 43.86 -12.22 -4.21zm31.71 -52.39l23.91 8.24c7.89,2.72 14.1,2.94 18.6,0.64 4.5,-2.3 7.82,-6.55 9.96,-12.78 1.56,-4.52 1.92,-8.72 1.07,-12.61 -0.85,-3.89 -2.69,-6.88 -5.54,-9.02 -1.85,-1.34 -5.52,-2.97 -11.08,-4.88l-23.65 -8.14 -13.27 38.55zm34.99 76.01l60.45 -103.8 13.63 2.9 15.41 119.92 -14.42 -3.06 -3.97 -36.18 -39.99 -8.5 -17.67 31.58 -13.44 -2.86zm37.32 -39.97l32.44 6.89 -3.43 -33.02c-1.03,-10.02 -1.66,-18.22 -1.85,-24.59 -2.75,6.91 -5.97,13.64 -9.69,20.23l-17.47 30.49zm63.48 58.5l9.95 -113.67 12.9 1.13 -4.09 46.69 50.61 4.42 4.09 -46.68 12.9 1.13 -9.95 113.66 -12.9 -1.12 4.69 -53.57 -50.61 -4.43 -4.69 53.57 -12.9 -1.13zm136.29 5.34l-17.85 -112.7 42.81 -6.78c8.6,-1.36 15.31,-1.38 20.1,-0.06 4.8,1.31 8.94,4.31 12.44,9 3.49,4.72 5.72,10.18 6.7,16.37 1.27,8 0.13,15.07 -3.46,21.26 -3.56,6.18 -9.86,10.76 -18.88,13.72 3.69,1.35 6.55,2.81 8.6,4.39 4.36,3.4 8.68,7.85 12.98,13.31l21.65 28.01 -16.07 2.55 -16.49 -21.44c-4.8,-6.15 -8.7,-10.86 -11.69,-14.04 -2.98,-3.22 -5.53,-5.39 -7.67,-6.51 -2.14,-1.14 -4.23,-1.83 -6.3,-2.09 -1.51,-0.11 -3.91,0.08 -7.21,0.6l-14.81 2.35 7.92 50.03 -12.77 2.03zm2.8 -64.97l27.47 -4.35c5.82,-0.93 10.3,-2.36 13.36,-4.3 3.08,-1.94 5.21,-4.59 6.43,-7.96 1.22,-3.36 1.54,-6.86 0.96,-10.5 -0.84,-5.33 -3.17,-9.45 -7.05,-12.36 -3.84,-2.92 -9.35,-3.79 -16.52,-2.66l-30.55 4.84 5.9 37.29zm94.24 49.32l-31.45 -109.68 67.93 -19.48 3.71 12.95 -55.5 15.91 9.63 33.59 51.98 -14.91 3.69 12.87 -51.98 14.91 10.7 37.33 57.7 -16.54 3.71 12.95 -70.12 20.1zm87.74 -26.47l-42.75 -105.79 34.19 -13.81c6.01,-2.43 10.75,-3.95 14.19,-4.56 4.8,-0.94 9.2,-0.8 13.2,0.42 3.98,1.2 7.79,3.65 11.38,7.27 3.61,3.64 6.46,8.08 8.58,13.32 3.63,8.99 4.27,17.62 1.89,25.83 -2.41,8.19 -10.01,14.9 -22.82,20.07l-23.25 9.4 17.37 43.01 -11.98 4.84zm-10.44 -60.34l23.45 -9.47c7.74,-3.13 12.57,-7.03 14.46,-11.72 1.88,-4.68 1.6,-10.07 -0.87,-16.18 -1.79,-4.43 -4.27,-7.84 -7.47,-10.22 -3.19,-2.37 -6.54,-3.43 -10.09,-3.17 -2.27,0.2 -6.12,1.38 -11.56,3.58l-23.2 9.37 15.28 37.81zm94.38 25.57l-55.32 -99.79 61.81 -34.26 6.53 11.78 -50.5 27.99 16.94 30.56 47.3 -26.22 6.49 11.71 -47.3 26.22 18.83 33.97 52.49 -29.1 6.53 11.78 -63.8 35.36zm79.43 -44.37l-68.67 -91.12 10.35 -7.79 28.2 37.42 40.57 -30.57 -28.2 -37.43 10.34 -7.79 68.67 91.12 -10.34 7.8 -32.36 -42.95 -40.57 30.58 32.36 42.94 -10.35 7.79zm106.49 -85.76l-83.45 -77.81 29.56 -31.7c5.94,-6.37 11.22,-10.51 15.8,-12.43 4.59,-1.92 9.7,-2.1 15.35,-0.56 5.65,1.57 10.77,4.5 15.35,8.77 5.93,5.53 9.38,11.8 10.37,18.88 1,7.07 -1.15,14.55 -6.44,22.44 3.74,-1.2 6.89,-1.81 9.48,-1.83 5.53,-0.01 11.68,0.84 18.43,2.49l34.3 8.75 -11.1 11.9 -26.18 -6.75c-7.57,-1.89 -13.55,-3.19 -17.86,-3.86 -4.33,-0.7 -7.68,-0.84 -10.05,-0.41 -2.39,0.42 -4.46,1.17 -6.26,2.23 -1.26,0.85 -3.03,2.47 -5.31,4.92l-10.23 10.96 37.06 34.56 -8.82 9.45zm-37.79 -52.92l18.96 -20.34c4.03,-4.31 6.67,-8.2 7.88,-11.6 1.24,-3.43 1.29,-6.84 0.17,-10.24 -1.11,-3.4 -3,-6.35 -5.7,-8.87 -3.95,-3.68 -8.33,-5.49 -13.17,-5.4 -4.83,0.07 -9.71,2.77 -14.66,8.08l-21.09 22.63 27.61 25.74zm104.38 -17.16l-70.23 -97.45 8.18 -11.27 115.83 34.7 -8.67 11.93 -34.66 -11.09 -24.03 33.07 21.66 28.99 -8.08 11.12zm-21.33 -50.36l19.49 -26.83 -31.56 -10.3c-9.58,-3.13 -17.33,-5.89 -23.22,-8.31 5.2,5.32 10.03,11 14.54,17.09l20.75 28.35zm80.78 -30.75l-99.8 -55.32 17.88 -32.25c3.14,-5.67 5.87,-9.83 8.16,-12.47 3.14,-3.75 6.65,-6.41 10.53,-7.98 3.84,-1.56 8.34,-2.06 13.41,-1.51 5.1,0.56 10.1,2.21 15.05,4.95 8.48,4.71 14.41,11.01 17.72,18.88 3.29,7.89 1.6,17.88 -5.09,29.97l-12.16 21.94 40.56 22.48 -6.26 11.31zm-46.09 -40.32l12.27 -22.12c4.05,-7.31 5.35,-13.38 3.86,-18.21 -1.48,-4.83 -5.09,-8.83 -10.86,-12.03 -4.18,-2.32 -8.25,-3.4 -12.23,-3.24 -3.98,0.16 -7.25,1.45 -9.84,3.89 -1.64,1.59 -3.89,4.92 -6.73,10.06l-12.13 21.88 35.66 19.77zm91.02 -41.71l-103.41 -48.22 5.46 -11.72 103.41 48.22 -5.46 11.72zm15.81 -32.19l-107.22 -39.03 4.43 -12.17 44.03 16.03 17.38 -47.74 -44.03 -16.02 4.42 -12.17 107.22 39.02 -4.43 12.17 -50.52 -18.39 -17.38 47.74 50.53 18.39 -4.43 12.17z"/>
  <path class="fil5" d="M310.45 1593.35l12.11 -5.65 1.13 -0.53 0.53 1.13 17.57 37.49 0.53 1.14 -1.13 0.53 -38.35 17.88 -0.5 0.23 -0.5 -0.2c-4.08,-1.65 -7.85,-3.51 -11.31,-5.58 -3.48,-2.07 -6.63,-4.35 -9.47,-6.82l0 0c-2.84,-2.49 -5.36,-5.19 -7.55,-8.08 -2.19,-2.9 -4.06,-6 -5.6,-9.3 -2.07,-4.45 -3.51,-8.98 -4.28,-13.56 -0.77,-4.57 -0.9,-9.2 -0.36,-13.87 0.52,-4.69 1.76,-9.17 3.7,-13.43 1.95,-4.28 4.6,-8.33 7.94,-12.15 3.33,-3.81 7.13,-7.27 11.37,-10.37 4.25,-3.1 8.95,-5.86 14.1,-8.26 5.09,-2.37 10.24,-4.21 15.43,-5.52 5.2,-1.3 10.45,-2.07 15.74,-2.3 5.31,-0.25 10.25,0.18 14.82,1.29 4.59,1.12 8.8,2.92 12.62,5.39 3.79,2.47 7.17,5.46 10.12,8.96 2.95,3.49 5.47,7.49 7.57,12 1.53,3.28 2.68,6.55 3.45,9.82 0.76,3.26 1.14,6.52 1.13,9.77 0,3.26 -0.38,6.35 -1.14,9.27l0 0c-0.77,2.93 -1.93,5.68 -3.47,8.26l-0.01 -0.01c-1.53,2.58 -3.47,5.11 -5.82,7.6 -2.33,2.47 -5.09,4.92 -8.28,7.37l-0.9 0.69 -0.77 -0.83 -8.33 -9 -0.9 -0.98 1.03 -0.83c2.28,-1.87 4.25,-3.68 5.89,-5.43 1.63,-1.72 2.95,-3.4 3.95,-5.01l0 0c0.98,-1.59 1.73,-3.31 2.24,-5.17 0.52,-1.88 0.8,-3.89 0.85,-6.04 0.05,-2.14 -0.17,-4.3 -0.64,-6.46l0 0c-0.47,-2.14 -1.21,-4.29 -2.22,-6.45 -1.21,-2.61 -2.57,-4.92 -4.07,-6.94 -1.5,-2.01 -3.15,-3.74 -4.93,-5.19 -1.78,-1.45 -3.63,-2.65 -5.54,-3.6l0 -0.01c-1.9,-0.94 -3.85,-1.64 -5.88,-2.1l0 0c-2.03,-0.46 -4.08,-0.75 -6.17,-0.89 -2.08,-0.13 -4.17,-0.1 -6.27,0.09 -3.63,0.36 -7.29,1.06 -10.97,2.09 -3.65,1.03 -7.32,2.41 -11,4.12 -4.56,2.13 -8.57,4.4 -12.04,6.83 -3.44,2.42 -6.37,5 -8.78,7.74 -2.39,2.71 -4.25,5.54 -5.58,8.48 -1.31,2.92 -2.11,5.97 -2.39,9.13l-0.01 0c-0.28,3.18 -0.17,6.28 0.34,9.29 0.51,3 1.43,5.91 2.74,8.73l0 0c1.14,2.45 2.55,4.76 4.23,6.89 1.67,2.13 3.61,4.11 5.81,5.94l0.01 0c2.21,1.86 4.33,3.4 6.34,4.63 1.82,1.11 3.55,1.97 5.21,2.58l17.67 -8.24 -11.61 -24.9 -0.53 -1.14 1.13 -0.52zm12.04 -2.86l-9.85 4.59 11.61 24.91 0.53 1.13 -1.13 0.53 -19.26 8.98 -0.46 0.21 -0.47 -0.16c-1.97,-0.67 -4.03,-1.66 -6.18,-2.98 -2.12,-1.29 -4.34,-2.91 -6.64,-4.84l0 0c-2.33,-1.93 -4.4,-4.04 -6.19,-6.32 -1.78,-2.28 -3.29,-4.74 -4.52,-7.38l-0.01 0c-1.4,-3.02 -2.38,-6.14 -2.93,-9.36 -0.54,-3.2 -0.66,-6.51 -0.36,-9.93l-0.01 0c0.31,-3.44 1.18,-6.75 2.62,-9.93 1.43,-3.17 3.42,-6.21 5.97,-9.11 2.53,-2.88 5.61,-5.59 9.24,-8.13 3.61,-2.53 7.74,-4.88 12.4,-7.05 3.8,-1.77 7.6,-3.19 11.39,-4.26 3.8,-1.07 7.6,-1.8 11.4,-2.17l0.01 0c2.25,-0.2 4.47,-0.24 6.66,-0.1 2.19,0.14 4.38,0.46 6.56,0.94l0.01 0c2.21,0.51 4.35,1.27 6.43,2.31l0 0c2.06,1.03 4.06,2.33 6.01,3.91 1.94,1.57 3.72,3.45 5.35,5.63 1.61,2.17 3.06,4.63 4.34,7.38 1.07,2.29 1.87,4.62 2.38,6.97l0.01 0c0.51,2.33 0.74,4.68 0.69,7.04 -0.05,2.36 -0.36,4.58 -0.93,6.65 -0.58,2.09 -1.42,4.03 -2.53,5.82l0 0.01c-1.09,1.75 -2.51,3.55 -4.25,5.41 -1.47,1.56 -3.18,3.16 -5.11,4.8l6.65 7.19c2.68,-2.12 5.05,-4.25 7.08,-6.41 2.24,-2.38 4.08,-4.76 5.51,-7.16l0 0c1.42,-2.37 2.48,-4.91 3.19,-7.61l0 0c0.71,-2.72 1.07,-5.6 1.07,-8.64 0,-3.05 -0.35,-6.12 -1.08,-9.2 -0.72,-3.1 -1.82,-6.21 -3.27,-9.34 -2.01,-4.31 -4.42,-8.13 -7.21,-11.44 -2.8,-3.32 -6,-6.15 -9.58,-8.48 -3.58,-2.32 -7.53,-4.01 -11.85,-5.06 -4.33,-1.05 -9.04,-1.46 -14.12,-1.22 -5.12,0.22 -10.2,0.97 -15.24,2.23 -5.03,1.27 -10.03,3.06 -14.99,5.37 -5.01,2.33 -9.57,5 -13.67,8 -4.1,3 -7.76,6.34 -10.97,10 -3.19,3.64 -5.71,7.5 -7.55,11.54 -1.83,4.02 -3,8.24 -3.49,12.67l0 0.01c-0.51,4.44 -0.39,8.84 0.34,13.18 0.74,4.35 2.11,8.66 4.09,12.92 1.46,3.13 3.24,6.09 5.33,8.84 2.09,2.77 4.49,5.34 7.19,7.71l0.01 0c2.74,2.39 5.77,4.57 9.1,6.56 3.2,1.91 6.69,3.64 10.46,5.19l36.73 -17.12 -16.51 -35.23zm-25.1 75.9l99.8 -55.32 1.09 -0.6 0.6 1.09 34.27 61.81 0.6 1.09 -1.09 0.6 -11.78 6.53 -1.09 0.6 -0.6 -1.08 -27.4 -49.42 -28.37 15.73 25.61 46.21 0.61 1.09 -1.09 0.6 -11.71 6.49 -1.09 0.61 -0.6 -1.09 -25.62 -46.21 -31.79 17.62 28.5 51.4 0.6 1.09 -1.09 0.61 -11.78 6.53 -1.09 0.6 -0.6 -1.08 -35.37 -63.81 -0.6 -1.09 1.08 -0.6zm99.92 -52.53l-97.62 54.1 34.16 61.63 9.6 -5.33 -28.49 -51.4 -0.61 -1.09 1.09 -0.6 33.97 -18.83 1.09 -0.61 0.61 1.09 25.61 46.21 9.53 -5.28 -25.61 -46.21 -0.61 -1.09 1.09 -0.6 30.56 -16.94 1.09 -0.61 0.6 1.09 27.39 49.42 9.6 -5.32 -33.05 -59.63zm-54.68 131.04l92.31 -67.06 1.01 -0.74 0.74 1.02 11.45 15.76 0.55 0.76 -0.58 0.74 -51.76 66.19 0 0.01c-2.37,3.01 -4.47,5.68 -6.36,8.04l-1.66 2.09 3.5 -1.29 0 0c2.95,-1.08 6.31,-2.29 10.06,-3.63l77.97 -27.73 0.88 -0.31 0.55 0.76 10.24 14.08 0.73 1.01 -1.01 0.74 -92.31 67.06 -1.01 0.74 -0.74 -1.01 -7.33 -10.09 -0.73 -1.01 1.01 -0.74 70.32 -51.09 -85.87 30.3 -0.87 0.31 -0.55 -0.75 -6.87 -9.45 -0.55 -0.76 0.58 -0.74 56.6 -73.04 -71.5 51.95 -1 0.73 -0.74 -1.01 -7.33 -10.09 -0.74 -1.01 1.01 -0.74zm92.77 -64.31l-90.29 65.6 5.87 8.07 77.56 -56.36 7.08 -5.14 -5.36 6.92 -61.38 79.22 5.76 7.93 93.08 -32.84 8.1 -2.86 -6.95 5.05 -76.25 55.4 5.86 8.07 90.29 -65.6 -8.95 -12.32 -77.1 27.42c-3.84,1.36 -7.18,2.57 -10.03,3.61l0 0.01c-3.12,1.14 -5.73,2.11 -7.81,2.91l-4.44 1.7 3.04 -3.67c1.17,-1.4 2.69,-3.29 4.56,-5.64 1.76,-2.21 3.88,-4.9 6.34,-8.04l0 0.01 51.19 -65.46 -10.17 -13.99zm-31.32 148.3l109.06 -50.35 0.82 -0.38 0.62 0.66 9.5 10.19 0.6 0.64 -0.41 0.79 -56.16 107.07 -0.82 1.56 -1.2 -1.28 -10.06 -10.79 -0.61 -0.66 0.43 -0.79 17.07 -31.12 -26.64 -28.56 -31.76 15.33 -0.83 0.4 -0.63 -0.67 -9.37 -10.06 -1.18 -1.26 1.57 -0.72zm109.29 -47.71l-106.68 49.25 7.57 8.12 31.76 -15.33 0.83 -0.4 0.63 0.67 27.88 29.9 0.61 0.66 -0.43 0.79 -17.07 31.12 8.25 8.84 54.93 -104.74 -8.28 -8.88zm-53.19 37.9l20.29 21.75 15.3 -27.51c2.48,-4.47 4.76,-8.45 6.83,-11.94 0.97,-1.63 1.9,-3.17 2.8,-4.62 -1.62,0.99 -3.24,1.94 -4.88,2.86 -3.29,1.86 -6.65,3.6 -10.09,5.24l-0.01 0 -30.24 14.22zm19.63 24.71l-22.62 -24.26 -1.16 -1.25 1.55 -0.73 31.78 -14.94 0 -0.01c3.4,-1.62 6.71,-3.34 9.93,-5.16 3.26,-1.83 6.42,-3.76 9.48,-5.76l5.04 -3.32 -3.32 5.04c-1.71,2.6 -3.63,5.69 -5.74,9.25 -2.12,3.58 -4.39,7.54 -6.81,11.88l-16.13 29.01 -0.83 1.5 -1.17 -1.25zm-6.61 59.55l73.34 -87.41 0.8 -0.96 0.96 0.81 9.92 8.32 0.96 0.8 -0.8 0.96 -29.33 34.94 37.01 31.05 29.32 -34.94 0.8 -0.96 0.95 0.8 9.93 8.33 0.95 0.8 -0.8 0.96 -73.34 87.4 -0.8 0.96 -0.96 -0.8 -9.92 -8.32 -0.96 -0.81 0.8 -0.95 33.77 -40.24 -37.01 -31.05 -33.76 40.24 -0.8 0.95 -0.96 -0.8 -9.92 -8.32 -0.95 -0.81 0.8 -0.95zm74.45 -84.85l-71.74 85.5 8.01 6.72 33.76 -40.24 0.8 -0.96 0.96 0.81 38.92 32.65 0.95 0.8 -0.8 0.96 -33.76 40.24 8.01 6.71 71.74 -85.49 -8.01 -6.72 -29.32 34.94 -0.81 0.96 -0.95 -0.8 -38.92 -32.66 -0.95 -0.8 0.8 -0.95 29.32 -34.95 -8.01 -6.72zm33.03 169.16l53.57 -100.75 0.59 -1.1 1.1 0.58 38.27 20.35c3.88,2.06 7.2,4.13 9.94,6.18 2.78,2.08 4.97,4.16 6.55,6.21 1.62,2.09 2.82,4.43 3.62,7.01 0.78,2.57 1.17,5.38 1.16,8.43l0 0.01c-0.02,3.04 -0.43,6.04 -1.21,8.98 -0.77,2.95 -1.92,5.85 -3.43,8.7 -1.97,3.69 -4.29,6.82 -6.98,9.4 -2.69,2.58 -5.76,4.6 -9.19,6.06l0 0c-3.44,1.46 -7.2,2.16 -11.27,2.09 -3.09,-0.05 -6.36,-0.55 -9.8,-1.49 0.37,0.67 0.71,1.31 1.01,1.94l0.01 0c0.73,1.51 1.28,2.93 1.64,4.26l0.01 0.01c0.73,2.7 1.29,5.64 1.69,8.78 0.4,3.12 0.63,6.44 0.71,9.95l0 0.01 0.43 35.4 0.03 2.11 -1.86 -0.99 -14.37 -7.64 -0.65 -0.34 -0.01 -0.75 -0.27 -27.03c-0.06,-3.86 -0.16,-7.33 -0.31,-10.39 -0.15,-3.01 -0.33,-5.61 -0.57,-7.75l0 -0.01c-0.21,-2.13 -0.5,-3.99 -0.86,-5.58 -0.34,-1.53 -0.75,-2.81 -1.24,-3.82l0 -0.01c-0.48,-1.03 -1.01,-1.98 -1.6,-2.83 -0.57,-0.83 -1.2,-1.57 -1.87,-2.23 -0.52,-0.46 -1.27,-1 -2.25,-1.61 -0.96,-0.6 -2.17,-1.3 -3.62,-2.07l-12.14 -6.46 -23.2 43.63 -0.59 1.1 -1.1 -0.58 -11.42 -6.07 -1.1 -0.59 0.58 -1.1zm55.19 -98.47l-52.39 98.54 9.21 4.89 23.19 -43.62 0.59 -1.11 1.1 0.59 13.25 7.04c1.46,0.78 2.72,1.5 3.78,2.17 1.09,0.69 1.95,1.3 2.57,1.85l0.05 0.05c0.81,0.78 1.55,1.66 2.22,2.63 0.67,0.97 1.27,2.03 1.81,3.19l0 0c0.56,1.16 1.03,2.61 1.42,4.35 0.38,1.68 0.68,3.64 0.9,5.86l0 0c0.24,2.2 0.44,4.84 0.58,7.91 0.15,3.03 0.25,6.52 0.32,10.46l0 0.01 0.26 26.29 11.85 6.3 -0.4 -33.28c-0.08,-3.43 -0.31,-6.66 -0.69,-9.69 -0.38,-3 -0.93,-5.82 -1.64,-8.45l0 0c-0.31,-1.16 -0.81,-2.44 -1.48,-3.82l0 0c-0.68,-1.4 -1.54,-2.9 -2.58,-4.51l-1.96 -3.02 3.41 1.16c4.37,1.49 8.44,2.27 12.2,2.34 3.71,0.06 7.13,-0.57 10.25,-1.9l0 0c3.15,-1.33 5.96,-3.18 8.44,-5.56 2.49,-2.39 4.66,-5.31 6.5,-8.77 1.43,-2.69 2.51,-5.41 3.23,-8.16 0.72,-2.75 1.1,-5.54 1.13,-8.37 0.01,-2.8 -0.34,-5.36 -1.06,-7.68 -0.71,-2.3 -1.77,-4.38 -3.2,-6.22 -1.45,-1.88 -3.48,-3.8 -6.07,-5.74 -2.61,-1.96 -5.82,-3.95 -9.62,-5.97l-37.17 -19.76zm-11.05 48.33l23.45 12.47c2.56,1.37 4.92,2.42 7.05,3.16 2.1,0.73 4.01,1.17 5.71,1.31l0 0c1.68,0.14 3.29,0.02 4.8,-0.36 1.52,-0.38 2.97,-1.02 4.35,-1.92 1.4,-0.92 2.67,-1.99 3.78,-3.22 1.11,-1.21 2.07,-2.6 2.89,-4.13 1.2,-2.26 1.94,-4.48 2.22,-6.67 0.28,-2.19 0.11,-4.36 -0.51,-6.52l0 -0.01c-0.6,-2.11 -1.8,-4.11 -3.59,-5.96 -1.84,-1.91 -4.31,-3.69 -7.4,-5.33l-26.2 -13.94 -16.55 31.12zm22.28 14.68l-24.56 -13.05 -1.11 -0.59 0.59 -1.1 17.72 -33.34 0.59 -1.1 1.1 0.59 27.31 14.52c3.32,1.76 6,3.7 8.03,5.81 2.08,2.16 3.48,4.5 4.19,7.02l0 0c0.72,2.49 0.91,5 0.59,7.51 -0.32,2.51 -1.16,5.02 -2.49,7.53 -0.91,1.72 -2,3.27 -3.25,4.65 -1.25,1.37 -2.67,2.58 -4.27,3.62 -1.62,1.05 -3.32,1.81 -5.1,2.25 -1.79,0.45 -3.67,0.59 -5.61,0.43 -1.9,-0.15 -4.01,-0.63 -6.33,-1.44 -2.29,-0.79 -4.76,-1.9 -7.4,-3.31zm23.48 80.12l44.59 -105.03 0.49 -1.15 1.15 0.49 11.9 5.05 1.15 0.49 -0.49 1.15 -44.59 105.03 -0.48 1.15 -1.15 -0.49 -11.91 -5.05 -1.14 -0.49 0.48 -1.15zm46.4 -102.9l-43.61 102.73 9.6 4.08 43.61 -102.74 -9.6 -4.07zm-12.99 115.78l37.15 -107.88 0.41 -1.19 1.18 0.41 34.86 12c3.07,1.06 5.77,2.09 8.08,3.08 2.34,1 4.3,1.98 5.86,2.91l-0.01 0c2.2,1.26 4.14,2.68 5.81,4.23 1.69,1.56 3.13,3.28 4.3,5.16l0 -0.01c1.16,1.85 2.08,3.92 2.75,6.19 0.67,2.25 1.09,4.71 1.26,7.34l0 0.01c0.17,2.64 0.06,5.31 -0.33,8.01 -0.39,2.69 -1.06,5.41 -2,8.16 -1.62,4.7 -3.77,8.84 -6.44,12.41 -2.67,3.57 -5.87,6.57 -9.58,8.96l-0.01 0c-3.8,2.43 -8.36,3.67 -13.68,3.7 -5.2,0.03 -11.14,-1.09 -17.79,-3.38l-22.53 -7.76 -14.7 42.67 -0.4 1.18 -1.19 -0.4 -12.22 -4.21 -1.18 -0.41 0.4 -1.18zm39.11 -105.89l-36.33 105.52 9.85 3.4 14.7 -42.68 0.41 -1.18 1.18 0.41 23.71 8.16c6.4,2.21 12.06,3.29 16.98,3.26 4.83,-0.03 8.94,-1.14 12.34,-3.31l0 0c3.46,-2.23 6.44,-5.02 8.94,-8.36 2.5,-3.34 4.53,-7.25 6.06,-11.72 0.9,-2.61 1.53,-5.18 1.9,-7.7 0.37,-2.53 0.47,-5.03 0.31,-7.5 -0.16,-2.46 -0.55,-4.74 -1.17,-6.81 -0.6,-2.04 -1.42,-3.9 -2.46,-5.55l0 -0.01c-1.05,-1.67 -2.34,-3.23 -3.88,-4.65 -1.55,-1.44 -3.35,-2.74 -5.38,-3.91l-0.01 -0.01c-1.45,-0.87 -3.31,-1.79 -5.56,-2.75 -2.23,-0.96 -4.87,-1.96 -7.91,-3.01l-33.68 -11.6zm-4.62 53.14l22.72 7.82c3.84,1.33 7.25,2.04 10.22,2.14 2.88,0.11 5.36,-0.37 7.41,-1.42 2.08,-1.06 3.9,-2.59 5.45,-4.57 1.57,-2.02 2.87,-4.52 3.9,-7.5 0.74,-2.17 1.2,-4.25 1.37,-6.25 0.17,-1.97 0.06,-3.88 -0.34,-5.7 -0.4,-1.8 -1.02,-3.39 -1.87,-4.77l0 -0.01c-0.83,-1.36 -1.9,-2.52 -3.2,-3.5 -0.86,-0.61 -2.17,-1.32 -3.94,-2.09 -1.79,-0.8 -4.06,-1.66 -6.79,-2.61l-22.47 -7.73 -12.46 36.19zm21.91 10.19l-23.91 -8.23 -1.18 -0.41 0.4 -1.18 13.28 -38.56 0.41 -1.18 1.18 0.4 23.65 8.15c2.78,0.95 5.11,1.85 6.99,2.68 1.94,0.85 3.41,1.65 4.41,2.37l0.02 0.01c1.55,1.16 2.83,2.56 3.83,4.2l0 0c1,1.61 1.72,3.47 2.18,5.55 0.45,2.07 0.58,4.22 0.39,6.44 -0.18,2.2 -0.69,4.49 -1.5,6.85 -1.11,3.24 -2.55,5.98 -4.3,8.22 -1.77,2.27 -3.86,4.03 -6.28,5.26 -2.44,1.25 -5.32,1.81 -8.63,1.7 -3.23,-0.11 -6.88,-0.87 -10.94,-2.27zm10.41 65.97l60.45 -103.8 0.46 -0.79 0.88 0.19 13.63 2.9 0.86 0.18 0.11 0.88 15.42 119.93 0.22 1.74 -1.72 -0.36 -14.42 -3.07 -0.88 -0.19 -0.1 -0.9 -3.87 -35.27 -38.2 -8.12 -17.23 30.77 -0.45 0.8 -0.9 -0.19 -13.44 -2.86 -1.69 -0.36 0.87 -1.48zm62.16 -101.77l-59.14 101.53 10.86 2.31 17.23 -30.78 0.45 -0.8 0.89 0.19 39.99 8.5 0.88 0.19 0.1 0.9 3.87 35.27 11.82 2.52 -15.08 -117.3 -11.87 -2.53zm-21.82 61.55l29.08 6.18 -3.25 -31.31c-0.52,-5.08 -0.94,-9.66 -1.25,-13.71 -0.14,-1.88 -0.26,-3.67 -0.36,-5.38 -0.75,1.72 -1.54,3.44 -2.36,5.14 -1.62,3.4 -3.37,6.76 -5.25,10.08l0 0.01 -16.61 28.99zm30.24 8.98l-32.44 -6.89 -1.67 -0.36 0.85 -1.49 17.46 -30.48 0 0.01c1.85,-3.28 3.58,-6.58 5.18,-9.92 1.59,-3.33 3.08,-6.72 4.45,-10.16l2.23 -5.61 0.17 6.03c0.09,3.12 0.29,6.75 0.61,10.87 0.31,4.15 0.72,8.69 1.23,13.63l3.43 33.02 0.18 1.71 -1.68 -0.36zm30.06 50.28l9.94 -113.66 0.11 -1.25 1.24 0.11 12.91 1.13 1.24 0.1 -0.11 1.25 -3.97 45.44 48.11 4.21 3.98 -45.44 0.11 -1.24 1.24 0.1 12.91 1.13 1.24 0.11 -0.11 1.25 -9.94 113.66 -0.11 1.25 -1.25 -0.11 -12.9 -1.13 -1.24 -0.11 0.1 -1.24 4.58 -52.32 -48.11 -4.21 -4.58 52.32 -0.11 1.24 -1.24 -0.1 -12.91 -1.13 -1.24 -0.11 0.11 -1.25zm12.32 -112.2l-9.72 111.17 10.41 0.91 4.57 -52.31 0.11 -1.25 1.25 0.11 50.6 4.43 1.25 0.1 -0.11 1.25 -4.57 52.32 10.41 0.91 9.72 -111.17 -10.41 -0.91 -3.97 45.43 -0.11 1.25 -1.25 -0.11 -50.61 -4.43 -1.24 -0.11 0.11 -1.24 3.97 -45.44 -10.41 -0.91zm123.98 117.84l-17.85 -112.69 -0.19 -1.24 1.23 -0.19 42.8 -6.78c4.36,-0.69 8.25,-1.04 11.67,-1.05 3.46,-0.01 6.45,0.33 8.96,1.01 2.55,0.7 4.92,1.84 7.11,3.43 2.17,1.58 4.18,3.59 6.01,6.03l0 0.01c1.8,2.43 3.28,5.07 4.44,7.9 1.15,2.82 1.98,5.83 2.48,9.01 0.65,4.14 0.69,8.04 0.09,11.71 -0.6,3.69 -1.83,7.15 -3.7,10.37l0 0c-1.87,3.25 -4.45,6.07 -7.73,8.46 -2.5,1.81 -5.42,3.38 -8.73,4.7 0.69,0.31 1.35,0.62 1.98,0.94l0 0c1.49,0.75 2.78,1.56 3.88,2.41l0 0c2.21,1.72 4.43,3.72 6.65,5.99 2.2,2.27 4.39,4.78 6.55,7.52l0.01 0.02 21.65 28.01 1.28 1.66 -2.07 0.33 -16.08 2.55 -0.73 0.11 -0.45 -0.58 -16.48 -21.43c-2.41,-3.09 -4.58,-5.79 -6.5,-8.11 -1.92,-2.3 -3.62,-4.26 -5.12,-5.85l-0.01 -0.01c-1.44,-1.55 -2.79,-2.87 -4.04,-3.93 -1.2,-1.02 -2.3,-1.79 -3.29,-2.31l-0.01 -0.01c-1,-0.53 -2,-0.97 -2.98,-1.29l0 0c-0.96,-0.31 -1.9,-0.54 -2.82,-0.66l0 0c-0.7,-0.05 -1.62,-0.03 -2.78,0.07 -1.2,0.1 -2.58,0.27 -4.14,0.52l-13.59 2.15 7.73 48.81 0.2 1.23 -1.23 0.2 -12.77 2.02 -1.23 0.19 -0.2 -1.23zm-15.19 -111.85l17.46 110.23 10.3 -1.63 -7.73 -48.81 -0.19 -1.23 1.23 -0.2 14.81 -2.34c1.71,-0.27 3.15,-0.46 4.34,-0.55 1.27,-0.11 2.33,-0.13 3.16,-0.07l0.07 0.01c1.12,0.14 2.24,0.4 3.35,0.77l0 0c1.11,0.37 2.24,0.86 3.36,1.46l0.01 -0.01c1.14,0.6 2.39,1.47 3.74,2.62 1.3,1.11 2.72,2.49 4.25,4.14l0.01 0c1.49,1.59 3.23,3.59 5.22,5.97 1.97,2.37 4.16,5.1 6.55,8.16l0 0.01 16.03 20.85 13.27 -2.1 -20.36 -26.34 0 0c-2.13,-2.71 -4.26,-5.15 -6.38,-7.33 -2.11,-2.16 -4.24,-4.09 -6.39,-5.76l0 0c-0.95,-0.73 -2.11,-1.46 -3.48,-2.15l0 -0.01c-1.38,-0.7 -2.98,-1.39 -4.78,-2.05l-3.38 -1.23 3.42 -1.13c4.38,-1.43 8.1,-3.26 11.15,-5.48 3.01,-2.18 5.36,-4.74 7.04,-7.68l0 0c1.72,-2.96 2.85,-6.13 3.4,-9.52 0.55,-3.41 0.52,-7.05 -0.09,-10.92 -0.48,-3 -1.25,-5.82 -2.33,-8.46 -1.07,-2.62 -2.45,-5.08 -4.14,-7.35l0 0c-1.67,-2.24 -3.5,-4.08 -5.47,-5.51 -1.95,-1.41 -4.05,-2.43 -6.29,-3.04 -2.29,-0.63 -5.07,-0.94 -8.31,-0.93 -3.28,0.01 -7.05,0.35 -11.28,1.02l-41.57 6.59zm20.26 45.26l26.24 -4.15c2.85,-0.45 5.36,-1.03 7.53,-1.73 2.12,-0.68 3.9,-1.48 5.35,-2.39l0 0c1.42,-0.9 2.63,-1.96 3.61,-3.17 0.98,-1.22 1.76,-2.61 2.32,-4.16 0.57,-1.59 0.94,-3.2 1.09,-4.84 0.15,-1.65 0.08,-3.33 -0.19,-5.05 -0.39,-2.51 -1.14,-4.73 -2.24,-6.67 -1.09,-1.9 -2.53,-3.54 -4.32,-4.89l-0.01 0c-1.76,-1.33 -3.92,-2.2 -6.46,-2.61 -2.62,-0.42 -5.67,-0.35 -9.12,0.19l-29.32 4.65 5.52 34.82zm26.63 -1.69l-27.47 4.35 -1.23 0.19 -0.2 -1.23 -5.91 -37.28 -0.19 -1.24 1.23 -0.19 30.55 -4.84c3.72,-0.58 7.02,-0.65 9.9,-0.19 2.97,0.47 5.49,1.5 7.58,3.08l0 0c2.07,1.56 3.74,3.45 4.99,5.65 1.25,2.19 2.09,4.7 2.54,7.52 0.3,1.92 0.37,3.81 0.2,5.66 -0.17,1.86 -0.58,3.68 -1.23,5.46 -0.65,1.81 -1.56,3.44 -2.71,4.87 -1.16,1.43 -2.57,2.67 -4.23,3.72l0 0c-1.61,1.02 -3.59,1.91 -5.92,2.65 -2.28,0.74 -4.92,1.35 -7.9,1.82zm65.37 52.78l-31.45 -109.68 -0.35 -1.2 1.21 -0.34 67.93 -19.48 1.2 -0.35 0.35 1.21 3.71 12.95 0.34 1.2 -1.2 0.34 -54.3 15.57 8.93 31.18 50.79 -14.56 1.2 -0.35 0.34 1.21 3.7 12.87 0.34 1.2 -1.2 0.34 -50.79 14.56 10.02 34.94 56.5 -16.21 1.2 -0.34 0.34 1.21 3.71 12.94 0.35 1.2 -1.21 0.35 -70.12 20.1 -1.2 0.35 -0.34 -1.21zm-28.71 -109.16l30.77 107.28 67.72 -19.42 -3.03 -10.55 -56.5 16.2 -1.19 0.35 -0.35 -1.21 -10.71 -37.33 -0.34 -1.2 1.21 -0.35 50.78 -14.56 -3 -10.46 -50.79 14.56 -1.2 0.34 -0.35 -1.2 -9.62 -33.58 -0.35 -1.2 1.21 -0.35 54.3 -15.57 -3.02 -10.54 -65.54 18.79zm116.49 82.81l-42.75 -105.79 -0.46 -1.15 1.16 -0.47 34.19 -13.81c3,-1.22 5.71,-2.21 8.11,-2.98 2.42,-0.78 4.52,-1.32 6.3,-1.65l0 0c2.48,-0.48 4.88,-0.69 7.18,-0.62 2.31,0.08 4.52,0.44 6.62,1.08l0.01 -0.01c2.08,0.63 4.12,1.59 6.12,2.87 1.98,1.26 3.92,2.84 5.78,4.72 1.87,1.88 3.54,3.97 5.01,6.26 1.47,2.29 2.75,4.78 3.84,7.48 1.86,4.62 2.96,9.15 3.29,13.58 0.32,4.45 -0.13,8.8 -1.36,13.05l0 0.01c-1.28,4.33 -3.91,8.26 -7.89,11.76 -3.91,3.44 -9.13,6.48 -15.66,9.12l-22.1 8.93 16.91 41.85 0.47 1.16 -1.16 0.47 -11.99 4.84 -1.15 0.46 -0.47 -1.16zm-39.96 -105.56l41.81 103.47 9.67 -3.9 -16.91 -41.86 -0.47 -1.15 1.16 -0.47 23.26 -9.39c6.26,-2.53 11.24,-5.43 14.94,-8.68 3.62,-3.19 6.01,-6.73 7.14,-10.6l0 0c1.15,-3.95 1.57,-8.01 1.26,-12.17 -0.3,-4.18 -1.34,-8.46 -3.11,-12.84 -1.03,-2.54 -2.24,-4.89 -3.62,-7.05 -1.38,-2.14 -2.94,-4.1 -4.68,-5.86 -1.74,-1.74 -3.53,-3.21 -5.35,-4.37 -1.79,-1.14 -3.63,-2 -5.51,-2.57l0 -0.01c-1.89,-0.57 -3.89,-0.9 -5.98,-0.96 -2.1,-0.07 -4.31,0.12 -6.62,0.57l-0.02 0c-1.67,0.3 -3.67,0.83 -6,1.57 -2.32,0.75 -4.97,1.72 -7.95,2.93l-33.02 13.34zm31.37 43.14l22.29 -9.01c3.75,-1.51 6.79,-3.21 9.11,-5.09l0 0.01c2.24,-1.82 3.8,-3.8 4.66,-5.94 0.87,-2.17 1.25,-4.52 1.11,-7.03 -0.13,-2.56 -0.8,-5.3 -1.98,-8.22 -0.85,-2.13 -1.88,-4 -3.05,-5.62 -1.17,-1.59 -2.5,-2.95 -4,-4.07 -1.48,-1.1 -2.99,-1.89 -4.54,-2.38 -1.53,-0.48 -3.1,-0.66 -4.72,-0.54l0 -0.01c-1.05,0.1 -2.5,0.43 -4.35,1.01 -1.88,0.58 -4.16,1.41 -6.84,2.49l-22.03 8.9 14.34 35.5zm23.22 -6.69l-23.45 9.47 -1.15 0.47 -0.47 -1.16 -15.28 -37.81 -0.46 -1.16 1.16 -0.47 23.19 -9.37c2.73,-1.1 5.08,-1.95 7.04,-2.56 2.02,-0.62 3.65,-0.99 4.88,-1.1l0.02 -0.01c1.93,-0.14 3.81,0.08 5.64,0.66 1.81,0.56 3.58,1.49 5.29,2.76 1.69,1.26 3.2,2.8 4.52,4.61 1.31,1.79 2.43,3.84 3.36,6.15 1.28,3.18 2,6.19 2.16,9.02 0.15,2.88 -0.28,5.58 -1.29,8.09 -1.02,2.54 -2.83,4.86 -5.41,6.94l0 0.01c-2.5,2.02 -5.76,3.84 -9.75,5.46zm69.38 34.49l-55.32 -99.79 -0.6 -1.1 1.09 -0.6 61.81 -34.26 1.09 -0.61 0.6 1.09 6.53 11.78 0.61 1.09 -1.09 0.61 -49.42 27.39 15.73 28.37 46.21 -25.61 1.09 -0.61 0.61 1.09 6.48 11.71 0.61 1.09 -1.09 0.61 -46.21 25.61 17.62 31.79 51.41 -28.49 1.09 -0.61 0.6 1.09 6.53 11.78 0.61 1.09 -1.09 0.61 -63.8 35.36 -1.1 0.61 -0.6 -1.09zm-52.53 -99.91l54.11 97.61 61.62 -34.16 -5.33 -9.6 -51.4 28.5 -1.09 0.6 -0.6 -1.09 -18.83 -33.97 -0.61 -1.09 1.09 -0.6 46.21 -25.62 -5.28 -9.53 -46.21 25.62 -1.09 0.6 -0.6 -1.09 -16.94 -30.55 -0.61 -1.09 1.09 -0.61 49.42 -27.39 -5.32 -9.6 -59.63 33.06zm132.05 55.69l-68.66 -91.13 -0.75 -1 0.99 -0.75 10.34 -7.79 1 -0.75 0.75 0.99 27.46 36.43 38.57 -29.07 -27.45 -36.42 -0.75 -1 1 -0.76 10.34 -7.79 1 -0.75 0.75 0.99 68.67 91.13 0.75 1 -1 0.75 -10.34 7.79 -1 0.76 -0.75 -1 -31.61 -41.95 -38.57 29.07 31.6 41.95 0.76 1 -1 0.75 -10.35 7.79 -0.99 0.75 -0.76 -0.99zm-65.91 -91.64l67.16 89.13 8.35 -6.29 -31.61 -41.94 -0.75 -1 0.99 -0.75 40.57 -30.57 1 -0.76 0.75 1 31.61 41.95 8.35 -6.29 -67.16 -89.13 -8.35 6.29 27.45 36.42 0.75 1 -0.99 0.76 -40.58 30.57 -1 0.75 -0.75 -1 -27.45 -36.42 -8.34 6.28zm172.55 6.03l-83.45 -77.81 -0.91 -0.85 0.85 -0.91 29.55 -31.7c3.02,-3.23 5.87,-5.91 8.54,-8.01 2.73,-2.14 5.3,-3.72 7.7,-4.72 2.43,-1.02 5,-1.58 7.71,-1.67 2.69,-0.1 5.51,0.25 8.45,1.05l0 0c2.93,0.82 5.73,1.98 8.37,3.49 2.63,1.51 5.14,3.37 7.5,5.58 3.06,2.86 5.49,5.91 7.28,9.17 1.8,3.27 2.96,6.76 3.47,10.45 0.53,3.71 0.23,7.51 -0.89,11.42 -0.85,2.97 -2.18,6 -3.99,9.09 0.75,-0.19 1.46,-0.35 2.15,-0.49 1.64,-0.31 3.16,-0.48 4.54,-0.48l0 0c2.83,-0.01 5.81,0.21 8.93,0.63 3.1,0.42 6.37,1.05 9.79,1.89l0.01 0 34.31 8.74 2.04 0.52 -1.43 1.54 -11.1 11.91 -0.51 0.54 -0.71 -0.19 -26.19 -6.74 0 0.01c-3.75,-0.94 -7.13,-1.74 -10.11,-2.39 -2.94,-0.63 -5.49,-1.12 -7.63,-1.45l-0.01 -0.01c-2.11,-0.34 -3.98,-0.55 -5.61,-0.61 -1.58,-0.07 -2.93,0 -4.02,0.2l-0.01 0.01c-1.12,0.19 -2.17,0.46 -3.14,0.81 -0.97,0.35 -1.87,0.77 -2.69,1.26 -0.58,0.39 -1.28,0.96 -2.09,1.72 -0.84,0.77 -1.82,1.76 -2.94,2.97l-9.38 10.05 36.14 33.7 0.91 0.85 -0.85 0.92 -8.82 9.45 -0.85 0.91 -0.91 -0.85zm-80.84 -78.79l81.63 76.12 7.11 -7.63 -36.13 -33.7 -0.92 -0.85 0.85 -0.91 10.23 -10.97c1.13,-1.22 2.16,-2.25 3.08,-3.1 0.95,-0.88 1.77,-1.55 2.45,-2l0.06 -0.04c0.96,-0.58 2,-1.06 3.12,-1.46 1.1,-0.4 2.29,-0.71 3.55,-0.93l0 0.01c1.28,-0.24 2.8,-0.32 4.56,-0.25 1.71,0.07 3.68,0.29 5.89,0.65l0 -0.01c2.17,0.34 4.77,0.84 7.79,1.49 2.98,0.65 6.38,1.45 10.19,2.4l0 0.01 25.48 6.56 9.15 -9.82 -32.26 -8.23 0 0c-3.32,-0.81 -6.5,-1.43 -9.53,-1.84 -3.02,-0.41 -5.88,-0.61 -8.58,-0.61l-0.01 0c-1.2,0 -2.56,0.15 -4.07,0.45 -1.54,0.29 -3.22,0.74 -5.03,1.32l-3.41 1.1 2 -2.98c2.56,-3.83 4.37,-7.56 5.41,-11.18 1.02,-3.58 1.29,-7.04 0.82,-10.4 -0.47,-3.38 -1.54,-6.58 -3.19,-9.59 -1.66,-3.03 -3.93,-5.88 -6.79,-8.54 -2.21,-2.07 -4.57,-3.81 -7.05,-5.24 -2.47,-1.41 -5.06,-2.5 -7.78,-3.25l0 0c-2.71,-0.73 -5.28,-1.06 -7.7,-0.97 -2.4,0.09 -4.68,0.58 -6.84,1.48 -2.19,0.92 -4.56,2.38 -7.11,4.39 -2.59,2.03 -5.35,4.61 -8.26,7.74l-28.71 30.78zm43.84 23.2l18.11 -19.43c1.97,-2.12 3.6,-4.12 4.88,-5.99 1.25,-1.84 2.16,-3.57 2.74,-5.18l0 0c0.57,-1.59 0.87,-3.16 0.89,-4.73 0.03,-1.56 -0.22,-3.13 -0.73,-4.7 -0.52,-1.6 -1.23,-3.09 -2.13,-4.48 -0.89,-1.39 -1.97,-2.69 -3.24,-3.87 -1.87,-1.74 -3.82,-3.03 -5.87,-3.87 -2.03,-0.84 -4.18,-1.23 -6.43,-1.19l0 0c-2.2,0.03 -4.44,0.67 -6.7,1.92 -2.33,1.29 -4.68,3.21 -7.06,5.76l-20.25 21.71 25.79 24.05zm19.94 -17.73l-18.97 20.34 -0.85 0.91 -0.91 -0.84 -27.61 -25.75 -0.92 -0.85 0.85 -0.91 21.1 -22.63c2.57,-2.75 5.13,-4.84 7.69,-6.25 2.61,-1.44 5.24,-2.19 7.86,-2.23 2.59,-0.05 5.06,0.42 7.41,1.38 2.34,0.96 4.54,2.41 6.63,4.35 1.42,1.34 2.64,2.79 3.65,4.35 1,1.56 1.8,3.25 2.39,5.05 0.6,1.83 0.89,3.67 0.86,5.52 -0.03,1.84 -0.38,3.68 -1.04,5.52l0 0.01c-0.64,1.79 -1.65,3.7 -3.03,5.73 -1.35,2 -3.06,4.1 -5.11,6.3zm83.49 3.06l-70.23 -97.45 -0.53 -0.74 0.53 -0.72 8.18 -11.27 0.52 -0.72 0.85 0.26 115.83 34.69 1.69 0.51 -1.04 1.42 -8.66 11.93 -0.53 0.73 -0.87 -0.27 -33.8 -10.82 -22.96 31.6 21.11 28.25 0.56 0.74 -0.55 0.74 -8.08 11.12 -1.01 1.4 -1.01 -1.4zm-67.68 -98.17l68.69 95.31 6.53 -8.98 -21.11 -28.25 -0.55 -0.74 0.54 -0.74 24.03 -33.07 0.53 -0.73 0.86 0.27 33.8 10.82 7.11 -9.78 -113.3 -33.94 -7.13 9.83zm47.35 44.96l17.48 -24.05 -29.93 -9.77c-4.84,-1.58 -9.18,-3.06 -13.02,-4.43 -1.78,-0.64 -3.47,-1.26 -5.07,-1.86 1.26,1.38 2.51,2.8 3.74,4.24 2.46,2.89 4.82,5.86 7.06,8.9l0.01 0 19.73 26.97zm20.51 -23.97l-19.49 26.83 -1.01 1.38 -1.01 -1.38 -20.74 -28.35 0 0c-2.26,-3.05 -4.58,-5.97 -6.96,-8.77 -2.38,-2.8 -4.88,-5.53 -7.47,-8.19l-4.22 -4.32 5.58 2.29c2.89,1.19 6.28,2.48 10.18,3.87 3.89,1.4 8.21,2.87 12.95,4.42l31.56 10.3 1.64 0.53 -1.01 1.39zm59.67 -3.57l-99.79 -55.32 -1.09 -0.6 0.6 -1.09 17.88 -32.25c1.59,-2.87 3.07,-5.35 4.43,-7.43 1.39,-2.12 2.68,-3.87 3.86,-5.24l0 0c1.62,-1.94 3.36,-3.61 5.19,-5 1.85,-1.4 3.8,-2.52 5.83,-3.34 2.01,-0.82 4.21,-1.36 6.56,-1.63 2.33,-0.26 4.82,-0.25 7.45,0.03l0.01 0c2.63,0.3 5.25,0.87 7.83,1.72 2.57,0.85 5.14,1.98 7.69,3.39 4.36,2.42 8.06,5.25 11.1,8.49 3.05,3.26 5.45,6.93 7.16,11l0.01 0c1.73,4.17 2.16,8.88 1.27,14.11 -0.87,5.13 -3.02,10.78 -6.43,16.94l-11.56 20.85 39.48 21.88 1.09 0.61 -0.61 1.09 -6.26 11.31 -0.61 1.09 -1.09 -0.61zm-97.49 -56.89l97.61 54.11 5.06 -9.13 -39.48 -21.89 -1.09 -0.6 0.61 -1.09 12.16 -21.94c3.27,-5.91 5.32,-11.29 6.15,-16.14 0.8,-4.76 0.43,-9.01 -1.12,-12.74l0 0c-1.6,-3.79 -3.83,-7.21 -6.68,-10.25 -2.87,-3.05 -6.37,-5.73 -10.49,-8.02 -2.4,-1.32 -4.82,-2.39 -7.26,-3.2 -2.43,-0.8 -4.87,-1.33 -7.32,-1.6 -2.45,-0.27 -4.76,-0.28 -6.92,-0.04 -2.11,0.24 -4.08,0.73 -5.89,1.47 -1.85,0.75 -3.61,1.75 -5.26,3.01 -1.67,1.26 -3.27,2.81 -4.79,4.62l-0.01 0.01c-1.1,1.27 -2.33,2.94 -3.67,4.99 -1.35,2.07 -2.8,4.49 -4.34,7.27l-17.27 31.16zm51.53 13.78l11.66 -21.03c1.96,-3.53 3.25,-6.77 3.87,-9.68 0.6,-2.83 0.57,-5.34 -0.11,-7.55 -0.69,-2.24 -1.88,-4.29 -3.56,-6.16 -1.72,-1.9 -3.96,-3.62 -6.71,-5.15 -2,-1.1 -3.97,-1.92 -5.91,-2.43 -1.92,-0.51 -3.81,-0.73 -5.67,-0.65 -1.84,0.07 -3.52,0.41 -5.03,1 -1.49,0.59 -2.83,1.44 -4.01,2.55l0 -0.01c-0.76,0.75 -1.68,1.92 -2.75,3.52 -1.11,1.66 -2.36,3.74 -3.74,6.24l0 0.01 -11.53 20.78 33.49 18.56zm13.83 -19.81l-12.26 22.11 -0.6 1.09 -1.09 -0.6 -35.67 -19.77 -1.08 -0.61 0.6 -1.09 12.13 -21.88 0 0c1.44,-2.59 2.72,-4.73 3.85,-6.41 1.18,-1.77 2.21,-3.08 3.1,-3.94l0.01 -0.01c1.42,-1.33 3.02,-2.35 4.8,-3.05 1.76,-0.7 3.71,-1.09 5.85,-1.18 2.11,-0.08 4.25,0.16 6.41,0.73 2.13,0.57 4.29,1.46 6.48,2.67 3.01,1.67 5.46,3.56 7.36,5.66 1.92,2.14 3.29,4.5 4.09,7.1 0.8,2.62 0.86,5.55 0.17,8.8 -0.67,3.15 -2.06,6.61 -4.15,10.38zm77.14 -19.07l-103.41 -48.22 -1.13 -0.53 0.53 -1.13 5.46 -11.72 0.53 -1.13 1.13 0.53 103.41 48.22 1.14 0.52 -0.53 1.14 -5.47 11.71 -0.52 1.14 -1.14 -0.53zm-101.22 -49.96l101.15 47.17 4.4 -9.46 -101.14 -47.16 -4.41 9.45zm117.14 17.81l-107.22 -39.02 -1.18 -0.43 0.43 -1.17 4.43 -12.17 0.43 -1.18 1.17 0.43 42.86 15.6 16.52 -45.39 -42.86 -15.6 -1.17 -0.43 0.42 -1.17 4.43 -12.17 0.43 -1.17 1.17 0.42 107.22 39.03 1.17 0.43 -0.42 1.17 -4.43 12.17 -0.43 1.17 -1.17 -0.42 -49.36 -17.97 -16.52 45.39 49.36 17.97 1.17 0.42 -0.43 1.17 -4.43 12.17 -0.42 1.18 -1.17 -0.43zm-105.2 -40.94l104.87 38.17 3.58 -9.82 -49.35 -17.97 -1.18 -0.43 0.43 -1.17 17.38 -47.73 0.42 -1.18 1.17 0.43 49.36 17.96 3.57 -9.82 -104.87 -38.17 -3.57 9.82 42.86 15.6 1.17 0.43 -0.43 1.17 -17.37 47.74 -0.43 1.17 -1.17 -0.42 -42.86 -15.61 -3.58 9.83z"/>
 </g>
</svg>
